# Blender v2.79 (sub 0) OBJ File: 'font_official7_modApplied.blend'
# www.blender.org
mtllib C.mtl
o C_CUABC.003
v 0.166667 0.000000 -0.777778
v -0.166667 0.000000 -0.777778
v -0.166667 0.000000 -0.666667
v 0.166667 0.000000 -0.666667
v -0.277778 0.000000 -0.666667
v -0.277778 0.000000 -0.111111
v -0.166667 0.000000 -0.111111
v 0.277778 0.000000 -0.555555
v 0.277778 0.000000 -0.666667
v 0.166667 0.000000 -0.555555
v 0.277778 0.000000 -0.222222
v 0.166667 0.000000 -0.222222
v 0.166667 0.000000 -0.111111
v 0.277778 0.000000 -0.111111
v -0.166667 0.000000 0.000000
v 0.166667 0.000000 0.000000
v 0.166667 -0.250000 -0.777778
v -0.166667 -0.250000 -0.777778
v -0.166667 -0.250000 -0.666667
v 0.166667 -0.250000 -0.666667
v -0.277778 -0.250000 -0.666667
v -0.277778 -0.250000 -0.111111
v -0.166667 -0.250000 -0.111111
v 0.277778 -0.250000 -0.555555
v 0.277778 -0.250000 -0.666667
v 0.166667 -0.250000 -0.555555
v 0.277778 -0.250000 -0.222222
v 0.166667 -0.250000 -0.222222
v 0.166667 -0.250000 -0.111111
v 0.277778 -0.250000 -0.111111
v -0.166667 -0.250000 0.000000
v 0.166667 -0.250000 0.000000
vn 0.0000 1.0000 0.0000
vn 0.0000 -1.0000 0.0000
vn -1.0000 0.0000 0.0000
vn 1.0000 0.0000 0.0000
vn 0.0000 0.0000 -1.0000
vn 0.0000 0.0000 1.0000
usemtl Material.003
s off
f 10//1 8//1 9//1 4//1
f 13//1 14//1 11//1 12//1
f 15//1 16//1 13//1 7//1
f 6//1 7//1 3//1 5//1
f 3//1 4//1 1//1 2//1
f 26//2 20//2 25//2 24//2
f 29//2 28//2 27//2 30//2
f 31//2 23//2 29//2 32//2
f 22//2 21//2 19//2 23//2
f 19//2 18//2 17//2 20//2
f 13//3 12//3 28//3 29//3
f 11//4 14//4 30//4 27//4
f 2//5 1//5 17//5 18//5
f 16//6 15//6 31//6 32//6
f 3//3 2//3 18//3 19//3
f 1//4 4//4 20//4 17//4
f 6//3 5//3 21//3 22//3
f 7//6 6//6 22//6 23//6
f 4//6 3//6 19//6 20//6
f 14//6 13//6 29//6 30//6
f 9//4 8//4 24//4 25//4
f 8//6 10//6 26//6 24//6
f 12//5 11//5 27//5 28//5
f 15//3 7//3 23//3 31//3
f 10//3 4//3 20//3 26//3
f 7//5 13//5 29//5 23//5
f 3//4 7//4 23//4 19//4
f 13//4 16//4 32//4 29//4
f 5//5 3//5 19//5 21//5
f 4//5 9//5 25//5 20//5
