# Blender v2.79 (sub 0) OBJ File: 'font_official7_modApplied.blend'
# www.blender.org
mtllib High_Comma.mtl
o High_Comma_CUABC.039
v 0.166667 -0.000000 -0.777779
v -0.055556 -0.000000 -0.777779
v -0.055556 -0.000000 -0.555557
v 0.055556 -0.000000 -0.555557
v 0.166667 -0.000000 -0.444446
v -0.055556 -0.000000 -0.333335
v 0.055556 -0.000000 -0.333335
v 0.055556 -0.000000 -0.444446
v -0.055556 -0.000000 -0.444446
v 0.166667 -0.250000 -0.777779
v -0.055556 -0.250000 -0.777779
v -0.055556 -0.250000 -0.555557
v 0.055556 -0.250000 -0.555557
v 0.166667 -0.250000 -0.444446
v -0.055556 -0.250000 -0.333335
v 0.055556 -0.250000 -0.333335
v 0.055556 -0.250000 -0.444446
v -0.055556 -0.250000 -0.444446
vn 0.0000 1.0000 0.0000
vn 0.0000 -1.0000 0.0000
vn -1.0000 0.0000 0.0000
vn 0.0000 0.0000 1.0000
vn 0.0000 0.0000 -1.0000
vn 1.0000 0.0000 0.0000
usemtl Material.039
s off
f 5//1 1//1 4//1 8//1
f 3//1 4//1 1//1 2//1
f 6//1 7//1 8//1 9//1
f 14//2 17//2 13//2 10//2
f 12//2 11//2 10//2 13//2
f 15//2 18//2 17//2 16//2
f 3//3 2//3 11//3 12//3
f 7//4 6//4 15//4 16//4
f 6//3 9//3 18//3 15//3
f 2//5 1//5 10//5 11//5
f 1//6 5//6 14//6 10//6
f 4//4 3//4 12//4 13//4
f 8//6 7//6 16//6 17//6
f 9//5 8//5 17//5 18//5
f 5//4 8//4 17//4 14//4
f 8//3 4//3 13//3 17//3
