# Blender v2.79 (sub 0) OBJ File: 'font_official7_modApplied.blend'
# www.blender.org
mtllib P.mtl
o P_CUABC.016
v 0.389444 -0.000000 -0.777778
v -0.051667 -0.000000 -0.777778
v 0.492778 -0.000000 -0.441111
v 0.492778 -0.000000 -0.661111
v 0.389444 -0.000000 -0.441111
v 0.051667 -0.000000 -0.441110
v 0.051667 -0.000000 -0.661111
v 0.389444 -0.000000 -0.661111
v -0.051667 -0.000000 -0.441110
v 0.051667 -0.000000 0.000000
v -0.051667 -0.000000 0.000000
v 0.051667 -0.000000 -0.336503
v -0.051667 -0.000000 -0.336503
v 0.389444 -0.000000 -0.336503
v 0.389444 -0.250000 -0.777778
v -0.051667 -0.250000 -0.777778
v 0.492778 -0.250000 -0.441111
v 0.492778 -0.250000 -0.661111
v 0.389444 -0.250000 -0.441111
v 0.051667 -0.250000 -0.441110
v 0.051667 -0.250000 -0.661111
v 0.389444 -0.250000 -0.661111
v -0.051667 -0.250000 -0.441110
v 0.051667 -0.250000 0.000000
v -0.051667 -0.250000 0.000000
v 0.051667 -0.250000 -0.336503
v -0.051667 -0.250000 -0.336503
v 0.389444 -0.250000 -0.336503
vn 0.0000 1.0000 0.0000
vn 0.0000 -1.0000 0.0000
vn -1.0000 0.0000 -0.0000
vn 1.0000 0.0000 0.0000
vn 0.0000 0.0000 1.0000
vn 0.0000 0.0000 -1.0000
usemtl Material.016
s off
f 2//1 9//1 6//1 7//1
f 1//1 2//1 7//1 8//1
f 13//1 11//1 10//1 12//1
f 8//1 5//1 3//1 4//1
f 9//1 13//1 12//1 6//1
f 6//1 12//1 14//1 5//1
f 16//2 21//2 20//2 23//2
f 15//2 22//2 21//2 16//2
f 27//2 26//2 24//2 25//2
f 22//2 18//2 17//2 19//2
f 23//2 20//2 26//2 27//2
f 20//2 19//2 28//2 26//2
f 5//3 8//3 22//3 19//3
f 4//4 3//4 17//4 18//4
f 3//5 5//5 19//5 17//5
f 7//4 6//4 20//4 21//4
f 2//6 1//6 15//6 16//6
f 8//5 7//5 21//5 22//5
f 1//4 8//4 22//4 15//4
f 8//6 4//6 18//6 22//6
f 9//3 2//3 16//3 23//3
f 10//5 11//5 25//5 24//5
f 11//3 13//3 27//3 25//3
f 12//4 10//4 24//4 26//4
f 13//3 9//3 23//3 27//3
f 14//5 12//5 26//5 28//5
f 5//4 14//4 28//4 19//4
f 6//6 5//6 19//6 20//6
