# Blender v2.79 (sub 0) OBJ File: 'font_official7_modApplied.blend'
# www.blender.org
mtllib R.mtl
o R_CUABC.018
v 0.166667 0.000000 -0.444445
v -0.166667 0.000000 -0.444445
v -0.166667 0.000000 -0.666667
v 0.166667 0.000000 -0.777778
v -0.277778 0.000000 -0.777778
v -0.277778 0.000000 0.000000
v -0.166667 0.000000 0.000000
v -0.166667 0.000000 -0.333333
v -0.055556 0.000000 -0.333333
v -0.055556 0.000000 -0.222222
v 0.055556 0.000000 -0.333333
v 0.166667 0.000000 -0.333333
v 0.166667 0.000000 -0.666667
v 0.277778 0.000000 -0.444445
v 0.277778 0.000000 -0.666667
v 0.166667 0.000000 -0.222222
v 0.055556 0.000000 -0.222222
v 0.055556 0.000000 -0.111111
v 0.277778 0.000000 0.000000
v 0.277778 0.000000 -0.111111
v 0.166667 0.000000 -0.111111
v 0.166667 0.000000 0.000000
v 0.166667 -0.250000 -0.444445
v -0.166667 -0.250000 -0.444445
v -0.166667 -0.250000 -0.666667
v 0.166667 -0.250000 -0.777778
v -0.277778 -0.250000 -0.777778
v -0.277778 -0.250000 0.000000
v -0.166667 -0.250000 0.000000
v -0.166667 -0.250000 -0.333333
v -0.055556 -0.250000 -0.333333
v -0.055556 -0.250000 -0.222222
v 0.055556 -0.250000 -0.333333
v 0.166667 -0.250000 -0.333333
v 0.166667 -0.250000 -0.666667
v 0.277778 -0.250000 -0.444445
v 0.277778 -0.250000 -0.666667
v 0.166667 -0.250000 -0.222222
v 0.055556 -0.250000 -0.222222
v 0.055556 -0.250000 -0.111111
v 0.277778 -0.250000 0.000000
v 0.277778 -0.250000 -0.111111
v 0.166667 -0.250000 -0.111111
v 0.166667 -0.250000 0.000000
vn 0.0000 1.0000 0.0000
vn 0.0000 -1.0000 0.0000
vn 1.0000 0.0000 0.0000
vn 0.0000 0.0000 1.0000
vn -1.0000 0.0000 0.0000
vn 0.0000 0.0000 -1.0000
usemtl Material.018
s off
f 7//1 8//1 2//1 3//1 5//1 6//1
f 4//1 5//1 3//1 13//1
f 18//1 21//1 16//1 17//1
f 1//1 14//1 15//1 13//1
f 22//1 19//1 20//1 21//1
f 8//1 12//1 1//1 2//1
f 10//1 17//1 11//1 9//1
f 29//2 28//2 27//2 25//2 24//2 30//2
f 26//2 35//2 25//2 27//2
f 40//2 39//2 38//2 43//2
f 23//2 35//2 37//2 36//2
f 44//2 43//2 42//2 41//2
f 30//2 24//2 23//2 34//2
f 32//2 31//2 33//2 39//2
f 8//3 7//3 29//3 30//3
f 12//4 8//4 30//4 34//4
f 19//4 22//4 44//4 41//4
f 18//5 17//5 39//5 40//5
f 5//6 4//6 26//6 27//6
f 1//3 12//3 34//3 23//3
f 6//5 5//5 27//5 28//5
f 20//3 19//3 41//3 42//3
f 7//4 6//4 28//4 29//4
f 17//6 16//6 38//6 39//6
f 15//3 14//3 36//3 37//3
f 10//5 9//5 31//5 32//5
f 22//5 21//5 43//5 44//5
f 9//6 11//6 33//6 31//6
f 13//6 15//6 37//6 35//6
f 21//6 20//6 42//6 43//6
f 2//6 1//6 23//6 24//6
f 3//3 2//3 24//3 25//3
f 4//3 13//3 35//3 26//3
f 17//4 10//4 32//4 39//4
f 14//4 1//4 23//4 36//4
f 1//5 13//5 35//5 23//5
f 11//3 17//3 39//3 33//3
f 21//4 18//4 40//4 43//4
f 16//3 21//3 43//3 38//3
f 13//4 3//4 25//4 35//4
