# Blender v2.79 (sub 0) OBJ File: 'font_official7_modApplied.blend'
# www.blender.org
mtllib Round_Bracket_Close.mtl
o Round_Bracket_Close_CUABC.043
v 0.166667 0.000000 -0.555556
v 0.166667 0.000000 -0.222222
v 0.277778 0.000000 -0.222222
v 0.277778 0.000000 -0.555556
v 0.166667 0.000000 -0.111111
v 0.055556 0.000000 -0.222222
v -0.055556 0.000000 0.000000
v 0.055556 0.000000 0.000000
v 0.055556 0.000000 -0.111111
v -0.055556 0.000000 -0.111111
v -0.055556 0.000000 -0.777778
v -0.055556 0.000000 -0.666667
v 0.055556 0.000000 -0.777778
v 0.055556 0.000000 -0.666667
v 0.055556 0.000000 -0.555556
v 0.166667 0.000000 -0.666667
v 0.166667 -0.250000 -0.555556
v 0.166667 -0.250000 -0.222222
v 0.277778 -0.250000 -0.222222
v 0.277778 -0.250000 -0.555556
v 0.166667 -0.250000 -0.111111
v 0.055556 -0.250000 -0.222222
v -0.055556 -0.250000 0.000000
v 0.055556 -0.250000 0.000000
v 0.055556 -0.250000 -0.111111
v -0.055556 -0.250000 -0.111111
v -0.055556 -0.250000 -0.777778
v -0.055556 -0.250000 -0.666667
v 0.055556 -0.250000 -0.777778
v 0.055556 -0.250000 -0.666667
v 0.055556 -0.250000 -0.555556
v 0.166667 -0.250000 -0.666667
vn 0.0000 1.0000 0.0000
vn 0.0000 -1.0000 0.0000
vn -1.0000 0.0000 0.0000
vn 0.0000 0.0000 -1.0000
vn 1.0000 0.0000 0.0000
vn 0.0000 0.0000 1.0000
usemtl Material.042
s off
f 9//1 5//1 2//1 6//1
f 7//1 8//1 9//1 10//1
f 15//1 1//1 16//1 14//1
f 2//1 3//1 4//1 1//1
f 12//1 14//1 13//1 11//1
f 25//2 22//2 18//2 21//2
f 23//2 26//2 25//2 24//2
f 31//2 30//2 32//2 17//2
f 18//2 17//2 20//2 19//2
f 28//2 27//2 29//2 30//2
f 15//3 14//3 30//3 31//3
f 2//3 1//3 17//3 18//3
f 11//4 13//4 29//4 27//4
f 10//4 9//4 25//4 26//4
f 12//3 11//3 27//3 28//3
f 9//5 8//5 24//5 25//5
f 7//3 10//3 26//3 23//3
f 8//6 7//6 23//6 24//6
f 4//5 3//5 19//5 20//5
f 3//6 2//6 18//6 19//6
f 14//4 16//4 32//4 30//4
f 1//4 4//4 20//4 17//4
f 6//4 2//4 18//4 22//4
f 2//5 5//5 21//5 18//5
f 13//5 14//5 30//5 29//5
f 14//6 12//6 28//6 30//6
f 16//5 1//5 17//5 32//5
f 9//3 6//3 22//3 25//3
f 5//6 9//6 25//6 21//6
f 1//6 15//6 31//6 17//6
