# Blender v2.79 (sub 0) OBJ File: 'font_official7_modApplied.blend'
# www.blender.org
mtllib Smaller_Than.mtl
o Smaller_Than_CUABC.037
v 0.055556 0.000000 -0.777778
v -0.055556 0.000000 -0.777778
v -0.055556 0.000000 -0.666667
v 0.055556 0.000000 -0.666667
v -0.166667 0.000000 -0.666667
v -0.166667 0.000000 -0.555556
v -0.055556 0.000000 -0.555556
v -0.277778 0.000000 -0.555556
v -0.277778 0.000000 -0.444444
v -0.166667 0.000000 -0.444444
v -0.388889 0.000000 -0.444444
v -0.388889 0.000000 -0.333333
v -0.166667 0.000000 -0.222222
v -0.166667 0.000000 -0.333333
v -0.277778 0.000000 -0.333333
v -0.277778 0.000000 -0.222222
v -0.055556 0.000000 -0.222222
v -0.166667 0.000000 -0.111111
v 0.055556 0.000000 0.000000
v 0.055556 0.000000 -0.111111
v -0.055556 0.000000 -0.111111
v -0.055556 0.000000 0.000000
v 0.055556 -0.250000 -0.777778
v -0.055556 -0.250000 -0.777778
v -0.055556 -0.250000 -0.666667
v 0.055556 -0.250000 -0.666667
v -0.166667 -0.250000 -0.666667
v -0.166667 -0.250000 -0.555556
v -0.055556 -0.250000 -0.555556
v -0.277778 -0.250000 -0.555556
v -0.277778 -0.250000 -0.444444
v -0.166667 -0.250000 -0.444444
v -0.388889 -0.250000 -0.444444
v -0.388889 -0.250000 -0.333333
v -0.166667 -0.250000 -0.222222
v -0.166667 -0.250000 -0.333333
v -0.277778 -0.250000 -0.333333
v -0.277778 -0.250000 -0.222222
v -0.055556 -0.250000 -0.222222
v -0.166667 -0.250000 -0.111111
v 0.055556 -0.250000 0.000000
v 0.055556 -0.250000 -0.111111
v -0.055556 -0.250000 -0.111111
v -0.055556 -0.250000 0.000000
vn 0.0000 1.0000 0.0000
vn 0.0000 -1.0000 0.0000
vn 0.0000 0.0000 1.0000
vn -1.0000 0.0000 0.0000
vn 1.0000 0.0000 0.0000
vn 0.0000 0.0000 -1.0000
usemtl Material.037
s off
f 22//1 19//1 20//1 21//1
f 12//1 15//1 9//1 11//1
f 6//1 7//1 3//1 5//1
f 16//1 13//1 14//1 15//1
f 3//1 4//1 1//1 2//1
f 9//1 10//1 6//1 8//1
f 18//1 21//1 17//1 13//1
f 44//2 43//2 42//2 41//2
f 34//2 33//2 31//2 37//2
f 28//2 27//2 25//2 29//2
f 38//2 37//2 36//2 35//2
f 25//2 24//2 23//2 26//2
f 31//2 30//2 28//2 32//2
f 40//2 35//2 39//2 43//2
f 4//3 3//3 25//3 26//3
f 9//4 8//4 30//4 31//4
f 20//5 19//5 41//5 42//5
f 13//3 16//3 38//3 35//3
f 1//5 4//5 26//5 23//5
f 12//4 11//4 33//4 34//4
f 22//4 21//4 43//4 44//4
f 10//3 9//3 31//3 32//3
f 15//6 14//6 36//6 37//6
f 3//4 2//4 24//4 25//4
f 14//5 13//5 35//5 36//5
f 2//6 1//6 23//6 24//6
f 19//3 22//3 44//3 41//3
f 7//3 6//3 28//3 29//3
f 6//4 5//4 27//4 28//4
f 16//4 15//4 37//4 38//4
f 21//6 20//6 42//6 43//6
f 8//6 6//6 28//6 30//6
f 9//5 15//5 37//5 31//5
f 15//3 12//3 34//3 37//3
f 21//3 18//3 40//3 43//3
f 3//5 7//5 29//5 25//5
f 18//4 13//4 35//4 40//4
f 6//5 10//5 32//5 28//5
f 13//6 17//6 39//6 35//6
f 17//5 21//5 43//5 39//5
f 11//6 9//6 31//6 33//6
f 5//6 3//6 25//6 27//6
