# Blender v2.79 (sub 0) OBJ File: 'font_official7_modApplied.blend'
# www.blender.org
mtllib T.mtl
o T_CUABC.020
v 0.277778 0.000000 -0.777778
v -0.277778 0.000000 -0.777778
v -0.277778 0.000000 -0.666667
v -0.055555 0.000000 -0.666667
v -0.055555 0.000000 0.000000
v 0.055555 0.000000 0.000000
v 0.055555 0.000000 -0.666667
v 0.277778 0.000000 -0.666667
v 0.277778 -0.250000 -0.777778
v -0.277778 -0.250000 -0.777778
v -0.277778 -0.250000 -0.666667
v -0.055555 -0.250000 -0.666667
v -0.055555 -0.250000 0.000000
v 0.055555 -0.250000 0.000000
v 0.055555 -0.250000 -0.666667
v 0.277778 -0.250000 -0.666667
vn 0.0000 1.0000 0.0000
vn 0.0000 -1.0000 0.0000
vn -1.0000 0.0000 0.0000
vn 1.0000 0.0000 0.0000
vn 0.0000 0.0000 1.0000
vn 0.0000 0.0000 -1.0000
usemtl Material.020
s off
f 5//1 6//1 7//1 4//1
f 3//1 8//1 1//1 2//1
f 13//2 12//2 15//2 14//2
f 11//2 10//2 9//2 16//2
f 3//3 2//3 10//3 11//3
f 1//4 8//4 16//4 9//4
f 8//5 3//5 11//5 16//5
f 6//5 5//5 13//5 14//5
f 4//6 7//6 15//6 12//6
f 5//3 4//3 12//3 13//3
f 2//6 1//6 9//6 10//6
f 7//4 6//4 14//4 15//4
