# Blender v2.79 (sub 0) OBJ File: 'font_official7_modApplied.blend'
# www.blender.org
mtllib 3.mtl
o 3_CUABC.030
v 0.277778 0.000000 -0.111111
v 0.277778 0.000000 -0.333333
v -0.277778 0.000000 -0.111111
v -0.166667 0.000000 -0.222222
v -0.277778 0.000000 -0.222222
v 0.166667 0.000000 -0.111111
v -0.166667 0.000000 -0.111111
v -0.166667 0.000000 0.000000
v 0.166667 0.000000 0.000000
v 0.277778 0.000000 -0.777778
v -0.277778 0.000000 -0.777778
v -0.277778 0.000000 -0.666667
v 0.166667 0.000000 -0.666667
v 0.166667 0.000000 -0.555556
v 0.277778 0.000000 -0.555556
v 0.055555 0.000000 -0.444444
v -0.055556 0.000000 -0.444444
v -0.055556 0.000000 -0.333333
v 0.166667 0.000000 -0.333333
v 0.055555 0.000000 -0.555556
v 0.277778 -0.250000 -0.111111
v 0.277778 -0.250000 -0.333333
v -0.277778 -0.250000 -0.111111
v -0.166667 -0.250000 -0.222222
v -0.277778 -0.250000 -0.222222
v 0.166667 -0.250000 -0.111111
v -0.166667 -0.250000 -0.111111
v -0.166667 -0.250000 0.000000
v 0.166667 -0.250000 0.000000
v 0.277778 -0.250000 -0.777778
v -0.277778 -0.250000 -0.777778
v -0.277778 -0.250000 -0.666667
v 0.166667 -0.250000 -0.666667
v 0.166667 -0.250000 -0.555556
v 0.277778 -0.250000 -0.555556
v 0.055555 -0.250000 -0.444444
v -0.055556 -0.250000 -0.444444
v -0.055556 -0.250000 -0.333333
v 0.166667 -0.250000 -0.333333
v 0.055555 -0.250000 -0.555556
vn 0.0000 1.0000 0.0000
vn 0.0000 -1.0000 0.0000
vn 0.0000 0.0000 -1.0000
vn 0.0000 0.0000 1.0000
vn 1.0000 0.0000 0.0000
vn -1.0000 0.0000 0.0000
usemtl Material.030
s off
f 3//1 7//1 4//1 5//1
f 6//1 1//1 2//1 19//1
f 12//1 13//1 10//1 11//1
f 14//1 15//1 10//1 13//1
f 20//1 16//1 19//1 14//1
f 17//1 18//1 19//1 16//1
f 8//1 9//1 6//1 7//1
f 23//2 25//2 24//2 27//2
f 26//2 39//2 22//2 21//2
f 32//2 31//2 30//2 33//2
f 34//2 33//2 30//2 35//2
f 40//2 34//2 39//2 36//2
f 37//2 36//2 39//2 38//2
f 28//2 27//2 26//2 29//2
f 17//3 16//3 36//3 37//3
f 15//4 14//4 34//4 35//4
f 2//5 1//5 21//5 22//5
f 16//6 20//6 40//6 36//6
f 13//4 12//4 32//4 33//4
f 18//6 17//6 37//6 38//6
f 19//4 18//4 38//4 39//4
f 3//6 5//6 25//6 23//6
f 9//4 8//4 28//4 29//4
f 14//6 13//6 33//6 34//6
f 10//5 15//5 35//5 30//5
f 7//3 6//3 26//3 27//3
f 8//6 7//6 27//6 28//6
f 6//5 9//5 29//5 26//5
f 5//3 4//3 24//3 25//3
f 11//3 10//3 30//3 31//3
f 12//6 11//6 31//6 32//6
f 19//3 2//3 22//3 39//3
f 1//4 6//4 26//4 21//4
f 6//6 19//6 39//6 26//6
f 7//4 3//4 23//4 27//4
f 4//5 7//5 27//5 24//5
f 14//5 19//5 39//5 34//5
f 20//3 14//3 34//3 40//3
