# Blender v2.79 (sub 0) OBJ File: 'font_official7_modApplied.blend'
# www.blender.org
mtllib 5.mtl
o 5_CUABC.032
v 0.277778 0.000000 -0.111111
v 0.277778 0.000000 -0.444444
v -0.277778 0.000000 -0.222222
v -0.277778 0.000000 -0.111111
v -0.166667 0.000000 -0.111111
v -0.166667 0.000000 -0.222222
v 0.166667 0.000000 -0.111111
v -0.166667 0.000000 0.000000
v 0.166667 0.000000 0.000000
v 0.166667 0.000000 -0.555556
v -0.166667 0.000000 -0.555556
v -0.166667 0.000000 -0.666667
v 0.277778 0.000000 -0.666667
v 0.277778 0.000000 -0.777778
v -0.277778 0.000000 -0.777778
v -0.277778 0.000000 -0.444444
v 0.166667 0.000000 -0.444444
v 0.277778 -0.250000 -0.111111
v 0.277778 -0.250000 -0.444444
v -0.277778 -0.250000 -0.222222
v -0.277778 -0.250000 -0.111111
v -0.166667 -0.250000 -0.111111
v -0.166667 -0.250000 -0.222222
v 0.166667 -0.250000 -0.111111
v -0.166667 -0.250000 0.000000
v 0.166667 -0.250000 0.000000
v 0.166667 -0.250000 -0.555556
v -0.166667 -0.250000 -0.555556
v -0.166667 -0.250000 -0.666667
v 0.277778 -0.250000 -0.666667
v 0.277778 -0.250000 -0.777778
v -0.277778 -0.250000 -0.777778
v -0.277778 -0.250000 -0.444444
v 0.166667 -0.250000 -0.444444
vn 0.0000 1.0000 0.0000
vn 0.0000 -1.0000 0.0000
vn 0.0000 0.0000 1.0000
vn 0.0000 0.0000 -1.0000
vn 1.0000 0.0000 0.0000
vn -1.0000 0.0000 0.0000
usemtl Material.032
s off
f 8//1 9//1 7//1 5//1
f 7//1 1//1 2//1 17//1
f 15//1 16//1 11//1 12//1
f 13//1 14//1 15//1 12//1
f 10//1 11//1 16//1 17//1
f 4//1 5//1 6//1 3//1
f 25//2 22//2 24//2 26//2
f 24//2 34//2 19//2 18//2
f 32//2 29//2 28//2 33//2
f 30//2 29//2 32//2 31//2
f 27//2 34//2 33//2 28//2
f 21//2 20//2 23//2 22//2
f 9//3 8//3 25//3 26//3
f 5//3 4//3 21//3 22//3
f 17//3 16//3 33//3 34//3
f 11//4 10//4 27//4 28//4
f 6//5 5//5 22//5 23//5
f 16//6 15//6 32//6 33//6
f 3//4 6//4 23//4 20//4
f 13//3 12//3 29//3 30//3
f 2//5 1//5 18//5 19//5
f 14//5 13//5 30//5 31//5
f 15//4 14//4 31//4 32//4
f 4//6 3//6 20//6 21//6
f 12//5 11//5 28//5 29//5
f 7//5 9//5 26//5 24//5
f 10//5 17//5 34//5 27//5
f 17//4 2//4 19//4 34//4
f 1//3 7//3 24//3 18//3
f 7//6 17//6 34//6 24//6
f 8//6 5//6 22//6 25//6
f 5//4 7//4 24//4 22//4
