# Blender v2.79 (sub 0) OBJ File: 'font_official7_modApplied.blend'
# www.blender.org
mtllib B.mtl
o B_CUABC.002
v 0.222222 0.000000 -0.444445
v -0.111112 0.000000 -0.444445
v -0.111112 0.000000 -0.666667
v 0.222222 0.000000 -0.777778
v -0.222222 0.000000 -0.777778
v -0.222222 0.000000 0.000000
v 0.222222 0.000000 0.000000
v -0.111112 0.000000 -0.111111
v -0.111112 0.000000 -0.333333
v 0.222222 0.000000 -0.666667
v 0.333333 0.000000 -0.444445
v 0.333333 0.000000 -0.666667
v 0.222222 0.000000 -0.111111
v 0.333333 0.000000 -0.111111
v 0.333333 0.000000 -0.333333
v 0.222222 0.000000 -0.333333
v 0.222222 -0.250000 -0.444445
v -0.111112 -0.250000 -0.444445
v -0.111112 -0.250000 -0.666667
v 0.222222 -0.250000 -0.777778
v -0.222222 -0.250000 -0.777778
v -0.222222 -0.250000 0.000000
v 0.222222 -0.250000 0.000000
v -0.111112 -0.250000 -0.111111
v -0.111112 -0.250000 -0.333333
v 0.222222 -0.250000 -0.666667
v 0.333333 -0.250000 -0.444445
v 0.333333 -0.250000 -0.666667
v 0.222222 -0.250000 -0.111111
v 0.333333 -0.250000 -0.111111
v 0.333333 -0.250000 -0.333333
v 0.222222 -0.250000 -0.333333
vn 0.0000 1.0000 0.0000
vn 0.0000 -1.0000 0.0000
vn 1.0000 0.0000 0.0000
vn -1.0000 0.0000 0.0000
vn 0.0000 0.0000 -1.0000
vn 0.0000 0.0000 1.0000
usemtl Material.002
s off
f 4//1 5//1 3//1 10//1
f 13//1 14//1 15//1 16//1
f 1//1 11//1 12//1 10//1
f 2//1 3//1 5//1 6//1 8//1 9//1
f 7//1 13//1 8//1 6//1
f 9//1 16//1 1//1 2//1
f 20//2 26//2 19//2 21//2
f 29//2 32//2 31//2 30//2
f 17//2 26//2 28//2 27//2
f 18//2 25//2 24//2 22//2 21//2 19//2
f 23//2 22//2 24//2 29//2
f 25//2 18//2 17//2 32//2
f 15//3 14//3 30//3 31//3
f 13//4 16//4 32//4 29//4
f 12//3 11//3 27//3 28//3
f 3//3 2//3 18//3 19//3
f 2//5 1//5 17//5 18//5
f 5//5 4//5 20//5 21//5
f 6//4 5//4 21//4 22//4
f 9//3 8//3 24//3 25//3
f 7//6 6//6 22//6 23//6
f 10//5 12//5 28//5 26//5
f 16//5 15//5 31//5 32//5
f 14//6 13//6 29//6 30//6
f 4//3 10//3 26//3 20//3
f 16//6 9//6 25//6 32//6
f 8//5 13//5 29//5 24//5
f 1//3 16//3 32//3 17//3
f 1//4 10//4 26//4 17//4
f 11//6 1//6 17//6 27//6
f 10//6 3//6 19//6 26//6
f 13//3 7//3 23//3 29//3
