# Blender v2.79 (sub 0) OBJ File: 'font_official7_modApplied.blend'
# www.blender.org
mtllib H.mtl
o H_CUABC.008
v 0.166667 0.000000 -0.777778
v 0.166667 0.000000 -0.444445
v -0.166667 0.000000 -0.444445
v -0.166667 0.000000 -0.777778
v -0.277778 0.000000 -0.777778
v -0.277778 0.000000 0.000000
v -0.166667 0.000000 0.000000
v -0.166667 0.000000 -0.333333
v 0.166667 0.000000 -0.333333
v 0.166667 0.000000 0.000000
v 0.277778 0.000000 0.000000
v 0.277778 0.000000 -0.777778
v 0.166667 -0.250000 -0.777778
v 0.166667 -0.250000 -0.444445
v -0.166667 -0.250000 -0.444445
v -0.166667 -0.250000 -0.777778
v -0.277778 -0.250000 -0.777778
v -0.277778 -0.250000 0.000000
v -0.166667 -0.250000 0.000000
v -0.166667 -0.250000 -0.333333
v 0.166667 -0.250000 -0.333333
v 0.166667 -0.250000 0.000000
v 0.277778 -0.250000 0.000000
v 0.277778 -0.250000 -0.777778
vn 0.0000 1.0000 0.0000
vn 0.0000 -1.0000 0.0000
vn 1.0000 0.0000 0.0000
vn -1.0000 0.0000 0.0000
vn 0.0000 0.0000 1.0000
vn 0.0000 0.0000 -1.0000
usemtl Material.008
s off
f 7//1 8//1 3//1 4//1 5//1 6//1
f 1//1 2//1 9//1 10//1 11//1 12//1
f 8//1 9//1 2//1 3//1
f 19//2 18//2 17//2 16//2 15//2 20//2
f 13//2 24//2 23//2 22//2 21//2 14//2
f 20//2 15//2 14//2 21//2
f 8//3 7//3 19//3 20//3
f 2//4 1//4 13//4 14//4
f 6//4 5//4 17//4 18//4
f 4//3 3//3 15//3 16//3
f 7//5 6//5 18//5 19//5
f 3//6 2//6 14//6 15//6
f 10//4 9//4 21//4 22//4
f 1//6 12//6 24//6 13//6
f 5//6 4//6 16//6 17//6
f 11//5 10//5 22//5 23//5
f 12//3 11//3 23//3 24//3
f 9//5 8//5 20//5 21//5
