# Blender v2.79 (sub 0) OBJ File: 'font_official7_modApplied.blend'
# www.blender.org
mtllib M.mtl
o M_CUABC.013
v -0.166667 0.000000 -0.666667
v -0.166667 0.000000 -0.777778
v -0.277778 0.000000 -0.777778
v -0.277778 0.000000 0.000000
v -0.166667 0.000000 0.000000
v -0.166667 0.000000 -0.555555
v -0.055556 0.000000 -0.666667
v 0.166667 0.000000 -0.777778
v 0.166667 0.000000 -0.666667
v 0.055556 0.000000 -0.666667
v 0.055556 0.000000 -0.555555
v 0.166667 0.000000 -0.555555
v 0.166667 0.000000 0.000000
v 0.277778 0.000000 0.000000
v 0.277778 0.000000 -0.777778
v -0.055556 0.000000 -0.555555
v -0.055556 0.000000 -0.333333
v 0.055556 0.000000 -0.333333
v -0.166667 -0.250000 -0.666667
v -0.166667 -0.250000 -0.777778
v -0.277778 -0.250000 -0.777778
v -0.277778 -0.250000 0.000000
v -0.166667 -0.250000 0.000000
v -0.166667 -0.250000 -0.555555
v -0.055556 -0.250000 -0.666667
v 0.166667 -0.250000 -0.777778
v 0.166667 -0.250000 -0.666667
v 0.055556 -0.250000 -0.666667
v 0.055556 -0.250000 -0.555555
v 0.166667 -0.250000 -0.555555
v 0.166667 -0.250000 0.000000
v 0.277778 -0.250000 0.000000
v 0.277778 -0.250000 -0.777778
v -0.055556 -0.250000 -0.555555
v -0.055556 -0.250000 -0.333333
v 0.055556 -0.250000 -0.333333
vn 0.0000 1.0000 0.0000
vn 0.0000 -1.0000 0.0000
vn 0.0000 0.0000 -1.0000
vn -1.0000 0.0000 0.0000
vn 0.0000 0.0000 1.0000
vn 1.0000 0.0000 0.0000
usemtl Material.013
s off
f 12//1 13//1 14//1 15//1 8//1 9//1
f 5//1 6//1 1//1 2//1 3//1 4//1
f 17//1 18//1 11//1 16//1
f 6//1 16//1 7//1 1//1
f 11//1 12//1 9//1 10//1
f 30//2 27//2 26//2 33//2 32//2 31//2
f 23//2 22//2 21//2 20//2 19//2 24//2
f 35//2 34//2 29//2 36//2
f 24//2 19//2 25//2 34//2
f 29//2 28//2 27//2 30//2
f 10//3 9//3 27//3 28//3
f 13//4 12//4 30//4 31//4
f 1//3 7//3 25//3 19//3
f 5//5 4//5 22//5 23//5
f 14//5 13//5 31//5 32//5
f 4//4 3//4 21//4 22//4
f 17//4 16//4 34//4 35//4
f 2//6 1//6 19//6 20//6
f 15//6 14//6 32//6 33//6
f 18//5 17//5 35//5 36//5
f 6//6 5//6 23//6 24//6
f 3//3 2//3 20//3 21//3
f 12//5 11//5 29//5 30//5
f 11//4 10//4 28//4 29//4
f 8//3 15//3 33//3 26//3
f 9//4 8//4 26//4 27//4
f 11//6 18//6 36//6 29//6
f 16//3 11//3 29//3 34//3
f 16//5 6//5 24//5 34//5
f 7//6 16//6 34//6 25//6
