# Blender v2.79 (sub 0) OBJ File: 'font_official7_modApplied.blend'
# www.blender.org
mtllib U.mtl
o U_CUABC.021
v -0.166667 0.000000 -0.777778
v -0.277778 0.000000 -0.777778
v -0.277778 0.000000 -0.111111
v 0.166667 0.000000 -0.777778
v 0.166667 0.000000 -0.111111
v 0.277778 0.000000 -0.111111
v 0.277778 0.000000 -0.777778
v -0.166667 0.000000 -0.111111
v -0.166667 0.000000 0.000000
v 0.166667 0.000000 0.000000
v -0.166667 -0.250000 -0.777778
v -0.277778 -0.250000 -0.777778
v -0.277778 -0.250000 -0.111111
v 0.166667 -0.250000 -0.777778
v 0.166667 -0.250000 -0.111111
v 0.277778 -0.250000 -0.111111
v 0.277778 -0.250000 -0.777778
v -0.166667 -0.250000 -0.111111
v -0.166667 -0.250000 0.000000
v 0.166667 -0.250000 0.000000
vn 0.0000 1.0000 0.0000
vn 0.0000 -1.0000 0.0000
vn -1.0000 0.0000 0.0000
vn 0.0000 0.0000 1.0000
vn 1.0000 0.0000 0.0000
vn 0.0000 0.0000 -1.0000
usemtl Material.021
s off
f 9//1 10//1 5//1 8//1
f 5//1 6//1 7//1 4//1
f 3//1 8//1 1//1 2//1
f 19//2 18//2 15//2 20//2
f 15//2 14//2 17//2 16//2
f 13//2 12//2 11//2 18//2
f 3//3 2//3 12//3 13//3
f 6//4 5//4 15//4 16//4
f 7//5 6//5 16//5 17//5
f 2//6 1//6 11//6 12//6
f 10//4 9//4 19//4 20//4
f 5//3 4//3 14//3 15//3
f 9//3 8//3 18//3 19//3
f 4//6 7//6 17//6 14//6
f 1//5 8//5 18//5 11//5
f 8//4 3//4 13//4 18//4
f 8//6 5//6 15//6 18//6
f 5//5 10//5 20//5 15//5
