# Blender v2.79 (sub 0) OBJ File: 'font_official7_modApplied.blend'
# www.blender.org
mtllib Y.mtl
o Y_CUABC.025
v -0.166667 0.000000 -0.777778
v -0.277778 0.000000 -0.777778
v -0.277778 0.000000 -0.555555
v -0.166667 0.000000 -0.555555
v 0.166667 0.000000 -0.777778
v 0.166667 0.000000 -0.555555
v 0.277778 0.000000 -0.555555
v 0.277778 0.000000 -0.777778
v -0.166667 0.000000 -0.444445
v -0.055555 0.000000 -0.444445
v -0.055555 0.000000 -0.555555
v 0.166667 0.000000 -0.444445
v 0.055555 0.000000 -0.555555
v -0.055555 0.000000 0.000000
v 0.055555 0.000000 0.000000
v 0.055555 0.000000 -0.444445
v -0.166667 -0.250000 -0.777778
v -0.277778 -0.250000 -0.777778
v -0.277778 -0.250000 -0.555555
v -0.166667 -0.250000 -0.555555
v 0.166667 -0.250000 -0.777778
v 0.166667 -0.250000 -0.555555
v 0.277778 -0.250000 -0.555555
v 0.277778 -0.250000 -0.777778
v -0.166667 -0.250000 -0.444445
v -0.055555 -0.250000 -0.444445
v -0.055555 -0.250000 -0.555555
v 0.166667 -0.250000 -0.444445
v 0.055555 -0.250000 -0.555555
v -0.055555 -0.250000 0.000000
v 0.055555 -0.250000 0.000000
v 0.055555 -0.250000 -0.444445
vn 0.0000 1.0000 0.0000
vn 0.0000 -1.0000 0.0000
vn 1.0000 0.0000 0.0000
vn 0.0000 0.0000 -1.0000
vn 0.0000 0.0000 1.0000
vn -1.0000 0.0000 0.0000
usemtl Material.025
s off
f 9//1 10//1 11//1 4//1
f 14//1 15//1 16//1 10//1
f 3//1 4//1 1//1 2//1
f 16//1 12//1 6//1 13//1
f 6//1 7//1 8//1 5//1
f 25//2 20//2 27//2 26//2
f 30//2 26//2 32//2 31//2
f 19//2 18//2 17//2 20//2
f 32//2 29//2 22//2 28//2
f 22//2 21//2 24//2 23//2
f 11//3 10//3 26//3 27//3
f 2//4 1//4 17//4 18//4
f 15//5 14//5 30//5 31//5
f 1//3 4//3 20//3 17//3
f 8//3 7//3 23//3 24//3
f 3//6 2//6 18//6 19//6
f 16//3 15//3 31//3 32//3
f 6//6 5//6 21//6 22//6
f 5//4 8//4 24//4 21//4
f 4//5 3//5 19//5 20//5
f 7//5 6//5 22//5 23//5
f 10//5 9//5 25//5 26//5
f 16//6 13//6 29//6 32//6
f 6//3 12//3 28//3 22//3
f 10//4 16//4 32//4 26//4
f 9//6 4//6 20//6 25//6
f 4//4 11//4 27//4 20//4
f 13//4 6//4 22//4 29//4
f 12//5 16//5 32//5 28//5
f 14//6 10//6 26//6 30//6
