# Blender v2.79 (sub 0) OBJ File: 'font_official7_modApplied.blend'
# www.blender.org
mtllib 9.mtl
o 9_CUABC.036
v 0.277778 0.000000 -0.111111
v 0.166667 0.000000 -0.222222
v 0.166667 0.000000 -0.111111
v -0.166667 0.000000 -0.111111
v -0.166667 0.000000 0.000000
v 0.166667 0.000000 0.000000
v 0.277778 0.000000 -0.777778
v -0.055556 0.000000 -0.777778
v -0.055556 0.000000 -0.666667
v -0.166667 0.000000 -0.666667
v -0.166667 0.000000 -0.444444
v 0.277778 0.000000 -0.666667
v 0.277778 0.000000 -0.444444
v -0.055556 0.000000 -0.444444
v -0.055556 0.000000 -0.333333
v 0.277778 0.000000 -0.333333
v 0.277778 0.000000 -0.222222
v 0.388889 0.000000 -0.222222
v 0.388889 0.000000 -0.666667
v 0.277778 -0.250000 -0.111111
v 0.166667 -0.250000 -0.222222
v 0.166667 -0.250000 -0.111111
v -0.166667 -0.250000 -0.111111
v -0.166667 -0.250000 0.000000
v 0.166667 -0.250000 0.000000
v 0.277778 -0.250000 -0.777778
v -0.055556 -0.250000 -0.777778
v -0.055556 -0.250000 -0.666667
v -0.166667 -0.250000 -0.666667
v -0.166667 -0.250000 -0.444444
v 0.277778 -0.250000 -0.666667
v 0.277778 -0.250000 -0.444444
v -0.055556 -0.250000 -0.444444
v -0.055556 -0.250000 -0.333333
v 0.277778 -0.250000 -0.333333
v 0.277778 -0.250000 -0.222222
v 0.388889 -0.250000 -0.222222
v 0.388889 -0.250000 -0.666667
vn 0.0000 1.0000 0.0000
vn 0.0000 -1.0000 0.0000
vn 0.0000 0.0000 -1.0000
vn -1.0000 0.0000 0.0000
vn 0.0000 0.0000 1.0000
vn 1.0000 0.0000 0.0000
usemtl Material.036
s off
f 9//1 12//1 7//1 8//1
f 11//1 14//1 9//1 10//1
f 15//1 16//1 13//1 14//1
f 3//1 1//1 17//1 2//1
f 17//1 18//1 19//1 12//1 13//1 16//1
f 5//1 6//1 3//1 4//1
f 28//2 27//2 26//2 31//2
f 30//2 29//2 28//2 33//2
f 34//2 33//2 32//2 35//2
f 22//2 21//2 36//2 20//2
f 36//2 35//2 32//2 31//2 38//2 37//2
f 24//2 23//2 22//2 25//2
f 8//3 7//3 26//3 27//3
f 5//4 4//4 23//4 24//4
f 18//5 17//5 36//5 37//5
f 3//6 6//6 25//6 22//6
f 13//4 12//4 31//4 32//4
f 4//3 3//3 22//3 23//3
f 14//3 13//3 32//3 33//3
f 10//3 9//3 28//3 29//3
f 16//5 15//5 34//5 35//5
f 12//3 19//3 38//3 31//3
f 15//4 14//4 33//4 34//4
f 11//4 10//4 29//4 30//4
f 19//6 18//6 37//6 38//6
f 6//5 5//5 24//5 25//5
f 17//4 16//4 35//4 36//4
f 1//5 3//5 22//5 20//5
f 2//3 17//3 36//3 21//3
f 14//5 11//5 30//5 33//5
f 17//6 1//6 20//6 36//6
f 9//6 14//6 33//6 28//6
f 12//5 9//5 28//5 31//5
f 9//4 8//4 27//4 28//4
f 7//6 12//6 31//6 26//6
f 3//4 2//4 21//4 22//4
