# Blender v2.79 (sub 0) OBJ File: 'font_official7_modApplied.blend'
# www.blender.org
mtllib D.mtl
o D_CUABC.004
v -0.111111 0.000000 -0.111111
v -0.111111 0.000000 -0.666667
v 0.222222 0.000000 -0.666667
v 0.222222 0.000000 -0.777778
v -0.222222 0.000000 -0.777778
v -0.222222 0.000000 0.000000
v 0.222222 0.000000 0.000000
v 0.222222 0.000000 -0.111111
v 0.333333 0.000000 -0.111111
v 0.333333 0.000000 -0.666667
v -0.111111 -0.250000 -0.111111
v -0.111111 -0.250000 -0.666667
v 0.222222 -0.250000 -0.666667
v 0.222222 -0.250000 -0.777778
v -0.222222 -0.250000 -0.777778
v -0.222222 -0.250000 0.000000
v 0.222222 -0.250000 0.000000
v 0.222222 -0.250000 -0.111111
v 0.333333 -0.250000 -0.111111
v 0.333333 -0.250000 -0.666667
vn 0.0000 1.0000 0.0000
vn 0.0000 -1.0000 0.0000
vn 1.0000 0.0000 0.0000
vn 0.0000 0.0000 1.0000
vn 0.0000 0.0000 -1.0000
vn -1.0000 0.0000 0.0000
usemtl Material.004
s off
f 1//1 2//1 5//1 6//1
f 3//1 4//1 5//1 2//1
f 6//1 7//1 8//1 1//1
f 8//1 9//1 10//1 3//1
f 11//2 16//2 15//2 12//2
f 13//2 12//2 15//2 14//2
f 16//2 11//2 18//2 17//2
f 18//2 13//2 20//2 19//2
f 4//3 3//3 13//3 14//3
f 3//4 2//4 12//4 13//4
f 2//3 1//3 11//3 12//3
f 10//3 9//3 19//3 20//3
f 9//4 8//4 18//4 19//4
f 5//5 4//5 14//5 15//5
f 7//4 6//4 16//4 17//4
f 6//6 5//6 15//6 16//6
f 8//3 7//3 17//3 18//3
f 1//5 8//5 18//5 11//5
f 3//5 10//5 20//5 13//5
f 8//6 3//6 13//6 18//6
