# Blender v2.79 (sub 0) OBJ File: 'font_official7_modApplied.blend'
# www.blender.org
mtllib G.mtl
o G_CUABC.007
v 0.103889 0.000000 -0.777778
v -0.220556 0.000000 -0.777778
v -0.220556 0.000000 -0.661111
v 0.103889 0.000000 -0.661111
v -0.337223 0.000000 -0.661111
v -0.337223 0.000000 -0.116667
v 0.220555 0.000000 -0.557778
v 0.220555 0.000000 -0.661111
v 0.103889 0.000000 -0.557778
v -0.220556 0.000000 0.000000
v 0.220555 0.000000 0.000000
v 0.220555 0.000000 -0.336667
v -0.000556 0.000000 -0.336667
v -0.000556 0.000000 -0.220000
v 0.103889 0.000000 -0.220000
v 0.103889 0.000000 -0.116667
v -0.220556 0.000000 -0.116667
v 0.103889 -0.250000 -0.777778
v -0.220556 -0.250000 -0.777778
v -0.220556 -0.250000 -0.661111
v 0.103889 -0.250000 -0.661111
v -0.337223 -0.250000 -0.661111
v -0.337223 -0.250000 -0.116667
v 0.220555 -0.250000 -0.557778
v 0.220555 -0.250000 -0.661111
v 0.103889 -0.250000 -0.557778
v -0.220556 -0.250000 0.000000
v 0.220555 -0.250000 0.000000
v 0.220555 -0.250000 -0.336667
v -0.000556 -0.250000 -0.336667
v -0.000556 -0.250000 -0.220000
v 0.103889 -0.250000 -0.220000
v 0.103889 -0.250000 -0.116667
v -0.220556 -0.250000 -0.116667
vn 0.0000 1.0000 0.0000
vn 0.0000 -1.0000 0.0000
vn -1.0000 0.0000 0.0000
vn 1.0000 0.0000 0.0000
vn 0.0000 0.0000 -1.0000
vn 0.0000 0.0000 1.0000
usemtl Material.007
s off
f 3//1 4//1 1//1 2//1
f 6//1 17//1 3//1 5//1
f 13//1 14//1 15//1 12//1
f 15//1 16//1 11//1 12//1
f 10//1 11//1 16//1 17//1
f 9//1 7//1 8//1 4//1
f 20//2 19//2 18//2 21//2
f 23//2 22//2 20//2 34//2
f 30//2 29//2 32//2 31//2
f 32//2 29//2 28//2 33//2
f 27//2 34//2 33//2 28//2
f 26//2 21//2 25//2 24//2
f 3//3 2//3 19//3 20//3
f 16//3 15//3 32//3 33//3
f 1//4 4//4 21//4 18//4
f 14//3 13//3 30//3 31//3
f 2//5 1//5 18//5 19//5
f 15//6 14//6 31//6 32//6
f 11//6 10//6 27//6 28//6
f 10//3 17//3 34//3 27//3
f 13//5 12//5 29//5 30//5
f 7//6 9//6 26//6 24//6
f 8//4 7//4 24//4 25//4
f 12//4 11//4 28//4 29//4
f 4//6 3//6 20//6 21//6
f 17//5 16//5 33//5 34//5
f 6//3 5//3 22//3 23//3
f 3//4 17//4 34//4 20//4
f 17//6 6//6 23//6 34//6
f 9//3 4//3 21//3 26//3
f 4//5 8//5 25//5 21//5
f 5//5 3//5 20//5 22//5
