# Blender v2.79 (sub 0) OBJ File: 'font_official7_modApplied.blend'
# www.blender.org
mtllib V.mtl
o V_CUABC.022
v -0.166667 0.000000 -0.777778
v -0.277778 0.000000 -0.777778
v -0.277778 0.000000 -0.222222
v 0.166667 0.000000 -0.777778
v 0.166667 0.000000 -0.222222
v 0.277778 0.000000 -0.222222
v 0.277778 0.000000 -0.777778
v -0.166667 0.000000 -0.222222
v -0.166667 0.000000 -0.111111
v -0.055555 0.000000 -0.222222
v 0.055555 0.000000 -0.111111
v 0.166667 0.000000 -0.111111
v 0.055555 0.000000 -0.222222
v -0.055555 0.000000 0.000000
v 0.055555 0.000000 0.000000
v -0.055555 0.000000 -0.111111
v -0.166667 -0.250000 -0.777778
v -0.277778 -0.250000 -0.777778
v -0.277778 -0.250000 -0.222222
v 0.166667 -0.250000 -0.777778
v 0.166667 -0.250000 -0.222222
v 0.277778 -0.250000 -0.222222
v 0.277778 -0.250000 -0.777778
v -0.166667 -0.250000 -0.222222
v -0.166667 -0.250000 -0.111111
v -0.055555 -0.250000 -0.222222
v 0.055555 -0.250000 -0.111111
v 0.166667 -0.250000 -0.111111
v 0.055555 -0.250000 -0.222222
v -0.055555 -0.250000 0.000000
v 0.055555 -0.250000 0.000000
v -0.055555 -0.250000 -0.111111
vn 0.0000 1.0000 0.0000
vn 0.0000 -1.0000 0.0000
vn -1.0000 0.0000 0.0000
vn 0.0000 0.0000 -1.0000
vn 1.0000 0.0000 0.0000
vn 0.0000 0.0000 1.0000
usemtl Material.022
s off
f 14//1 15//1 11//1 16//1
f 3//1 8//1 1//1 2//1
f 5//1 6//1 7//1 4//1
f 11//1 12//1 5//1 13//1
f 9//1 16//1 10//1 8//1
f 30//2 32//2 27//2 31//2
f 19//2 18//2 17//2 24//2
f 21//2 20//2 23//2 22//2
f 27//2 29//2 21//2 28//2
f 25//2 24//2 26//2 32//2
f 5//3 4//3 20//3 21//3
f 8//4 10//4 26//4 24//4
f 7//5 6//5 22//5 23//5
f 2//4 1//4 17//4 18//4
f 15//6 14//6 30//6 31//6
f 4//4 7//4 23//4 20//4
f 6//6 5//6 21//6 22//6
f 12//6 11//6 27//6 28//6
f 14//3 16//3 32//3 30//3
f 9//3 8//3 24//3 25//3
f 3//3 2//3 18//3 19//3
f 11//3 13//3 29//3 27//3
f 11//5 15//5 31//5 27//5
f 1//5 8//5 24//5 17//5
f 10//5 16//5 32//5 26//5
f 8//6 3//6 19//6 24//6
f 13//4 5//4 21//4 29//4
f 16//6 9//6 25//6 32//6
f 16//4 11//4 27//4 32//4
f 5//5 12//5 28//5 21//5
