# Blender v2.79 (sub 0) OBJ File: 'font_official7_modApplied.blend'
# www.blender.org
mtllib X.mtl
o X_CUABC.024
v 0.166667 0.000000 -0.777778
v 0.166667 0.000000 -0.555555
v 0.277778 0.000000 -0.555555
v 0.277778 0.000000 -0.777778
v 0.166667 0.000000 -0.444445
v 0.055555 0.000000 -0.555555
v -0.055555 0.000000 -0.333333
v 0.055555 0.000000 -0.444445
v -0.055555 0.000000 -0.222222
v -0.166667 0.000000 -0.333333
v 0.166667 0.000000 -0.222222
v 0.166667 0.000000 -0.333333
v 0.055555 0.000000 -0.333333
v 0.055555 0.000000 -0.222222
v -0.277778 0.000000 -0.222222
v -0.277778 0.000000 0.000000
v -0.166667 0.000000 0.000000
v -0.166667 0.000000 -0.222222
v 0.166667 0.000000 0.000000
v 0.277778 0.000000 0.000000
v 0.277778 0.000000 -0.222222
v -0.166667 0.000000 -0.777778
v -0.277778 0.000000 -0.777778
v -0.277778 0.000000 -0.555555
v -0.166667 0.000000 -0.555555
v -0.166667 0.000000 -0.444445
v -0.055555 0.000000 -0.444445
v -0.055555 0.000000 -0.555555
v 0.166667 -0.250000 -0.777778
v 0.166667 -0.250000 -0.555555
v 0.277778 -0.250000 -0.555555
v 0.277778 -0.250000 -0.777778
v 0.166667 -0.250000 -0.444445
v 0.055555 -0.250000 -0.555555
v -0.055555 -0.250000 -0.333333
v 0.055555 -0.250000 -0.444445
v -0.055555 -0.250000 -0.222222
v -0.166667 -0.250000 -0.333333
v 0.166667 -0.250000 -0.222222
v 0.166667 -0.250000 -0.333333
v 0.055555 -0.250000 -0.333333
v 0.055555 -0.250000 -0.222222
v -0.277778 -0.250000 -0.222222
v -0.277778 -0.250000 0.000000
v -0.166667 -0.250000 0.000000
v -0.166667 -0.250000 -0.222222
v 0.166667 -0.250000 0.000000
v 0.277778 -0.250000 0.000000
v 0.277778 -0.250000 -0.222222
v -0.166667 -0.250000 -0.777778
v -0.277778 -0.250000 -0.777778
v -0.277778 -0.250000 -0.555555
v -0.166667 -0.250000 -0.555555
v -0.166667 -0.250000 -0.444445
v -0.055555 -0.250000 -0.444445
v -0.055555 -0.250000 -0.555555
vn 0.0000 1.0000 0.0000
vn 0.0000 -1.0000 0.0000
vn 0.0000 0.0000 1.0000
vn 0.0000 0.0000 -1.0000
vn 1.0000 0.0000 0.0000
vn -1.0000 0.0000 0.0000
usemtl Material.024
s off
f 24//1 25//1 22//1 23//1
f 19//1 20//1 21//1 11//1
f 8//1 5//1 2//1 6//1
f 18//1 9//1 7//1 10//1
f 7//1 13//1 8//1 27//1
f 2//1 3//1 4//1 1//1
f 26//1 27//1 28//1 25//1
f 14//1 11//1 12//1 13//1
f 16//1 17//1 18//1 15//1
f 52//2 51//2 50//2 53//2
f 47//2 39//2 49//2 48//2
f 36//2 34//2 30//2 33//2
f 46//2 38//2 35//2 37//2
f 35//2 55//2 36//2 41//2
f 30//2 29//2 32//2 31//2
f 54//2 53//2 56//2 55//2
f 42//2 41//2 40//2 39//2
f 44//2 43//2 46//2 45//2
f 25//3 24//3 52//3 53//3
f 13//4 12//4 40//4 41//4
f 27//3 26//3 54//3 55//3
f 18//5 17//5 45//5 46//5
f 11//3 14//3 42//3 39//3
f 12//5 11//5 39//5 40//5
f 17//3 16//3 44//3 45//3
f 20//3 19//3 47//3 48//3
f 4//5 3//5 31//5 32//5
f 21//5 20//5 48//5 49//5
f 23//4 22//4 50//4 51//4
f 3//3 2//3 30//3 31//3
f 28//5 27//5 55//5 56//5
f 22//5 25//5 53//5 50//5
f 1//4 4//4 32//4 29//4
f 24//6 23//6 51//6 52//6
f 15//4 18//4 46//4 43//4
f 14//6 13//6 41//6 42//6
f 2//6 1//6 29//6 30//6
f 16//6 15//6 43//6 44//6
f 25//4 28//4 56//4 53//4
f 8//5 13//5 41//5 36//5
f 7//6 27//6 55//6 35//6
f 11//4 21//4 49//4 39//4
f 18//6 10//6 38//6 46//6
f 13//3 7//3 35//3 41//3
f 19//6 11//6 39//6 47//6
f 9//3 18//3 46//3 37//3
f 8//6 6//6 34//6 36//6
f 10//4 7//4 35//4 38//4
f 5//3 8//3 36//3 33//3
f 6//4 2//4 30//4 34//4
f 7//5 9//5 37//5 35//5
f 26//6 25//6 53//6 54//6
f 2//5 5//5 33//5 30//5
f 27//4 8//4 36//4 55//4
