# Blender v2.79 (sub 0) OBJ File: 'beam1.blend'
# www.blender.org
mtllib beamALT1.mtl
o beam1_Cube.020
v -0.047916 -0.200534 -0.490335
v -0.043830 -0.199364 0.491217
v 0.083101 -0.200824 -0.490880
v 0.087187 -0.199654 0.490672
v -0.187596 -0.199217 0.349675
v -0.044422 -0.199533 0.349079
v 0.086595 -0.199823 0.348534
v -0.045027 -0.199706 0.203796
v 0.085991 -0.199996 0.203251
v -0.188201 -0.199390 0.204392
v 0.216504 -0.200430 0.081637
v -0.045531 -0.199851 0.082727
v 0.085487 -0.200141 0.082182
v -0.046746 -0.200199 -0.209211
v 0.084271 -0.200489 -0.209756
v -0.189920 -0.199882 -0.208615
v -0.047365 -0.200376 -0.357882
v 0.083652 -0.200666 -0.358427
v -0.190539 -0.200059 -0.357287
v 0.215885 -0.200608 -0.067035
v -0.046150 -0.200028 -0.065945
v 0.084868 -0.200318 -0.066490
v -0.047033 0.199565 -0.490816
v -0.042947 0.200735 0.490736
v 0.083984 0.199275 -0.491361
v 0.088070 0.200445 0.490191
v -0.186713 0.200882 0.349194
v -0.043539 0.200566 0.348599
v 0.087478 0.200276 0.348054
v -0.044144 0.200392 0.203315
v 0.086873 0.200103 0.202770
v -0.187318 0.200709 0.203911
v 0.217387 0.199668 0.081156
v -0.044648 0.200248 0.082246
v 0.086369 0.199958 0.081701
v -0.045863 0.199900 -0.209691
v 0.085154 0.199610 -0.210236
v -0.189037 0.200217 -0.209096
v -0.046482 0.199723 -0.358363
v 0.084535 0.199433 -0.358908
v -0.189656 0.200039 -0.357767
v 0.216768 0.199491 -0.067516
v -0.045267 0.200071 -0.066426
v 0.085751 0.199781 -0.066971
vn -0.0022 -1.0000 0.0012
vn 0.0022 1.0000 -0.0012
vn 0.0042 0.0012 1.0000
vn -1.0000 0.0022 0.0042
vn -0.0042 -0.0012 -1.0000
vn 1.0000 -0.0022 -0.0042
usemtl Material.003
s off
f 7//1 4//1 2//1 6//1
f 8//1 6//1 5//1 10//1
f 13//1 9//1 8//1 12//1
f 20//1 11//1 13//1 22//1
f 17//1 14//1 16//1 19//1
f 3//1 18//1 17//1 1//1
f 15//1 22//1 21//1 14//1
f 29//2 28//2 24//2 26//2
f 30//2 32//2 27//2 28//2
f 35//2 34//2 30//2 31//2
f 42//2 44//2 35//2 33//2
f 39//2 41//2 38//2 36//2
f 25//2 23//2 39//2 40//2
f 37//2 36//2 43//2 44//2
f 2//3 4//3 26//3 24//3
f 1//4 17//4 39//4 23//4
f 3//5 1//5 23//5 25//5
f 18//6 3//6 25//6 40//6
f 10//4 5//4 27//4 32//4
f 6//4 2//4 24//4 28//4
f 4//6 7//6 29//6 26//6
f 7//5 6//5 28//5 29//5
f 5//3 6//3 28//3 27//3
f 6//6 8//6 30//6 28//6
f 8//5 10//5 32//5 30//5
f 8//3 9//3 31//3 30//3
f 12//4 8//4 30//4 34//4
f 9//6 13//6 35//6 31//6
f 13//3 11//3 33//3 35//3
f 13//5 12//5 34//5 35//5
f 14//4 21//4 43//4 36//4
f 22//6 15//6 37//6 44//6
f 19//4 16//4 38//4 41//4
f 16//3 14//3 36//3 38//3
f 15//5 14//5 36//5 37//5
f 14//6 17//6 39//6 36//6
f 17//3 18//3 40//3 39//3
f 17//5 19//5 41//5 39//5
f 11//6 20//6 42//6 33//6
f 22//4 13//4 35//4 44//4
f 21//3 22//3 44//3 43//3
f 20//5 22//5 44//5 42//5
