# Blender v2.79 (sub 0) OBJ File: ''
# www.blender.org
mtllib crab_anim0.mtl
o crab_anim0_Cube.001
v 0.787894 0.023233 0.257549
v 0.787894 0.422197 -0.141415
v 0.496876 0.023233 0.257549
v 0.496875 0.422197 -0.141415
v 0.496876 -0.175730 0.456512
v 0.201908 0.023233 0.257549
v 0.787894 0.215897 0.064885
v 0.637564 0.023233 0.257549
v 0.201908 0.422197 -0.141415
v 0.637564 0.422197 -0.141415
v 0.496875 0.215897 0.064885
v 0.496875 0.526224 -0.245442
v 0.637564 -0.175730 0.456512
v 0.496876 -0.282030 0.562812
v 0.496876 -0.071703 0.352485
v 0.346178 0.115545 0.165237
v 0.201908 0.115545 0.165237
v 0.637564 0.115545 0.165237
v 0.787894 0.115545 0.165237
v 0.496876 0.115545 0.165237
v 0.346178 0.319047 -0.038265
v 0.201908 0.319047 -0.038265
v 0.637564 0.319047 -0.038265
v 0.496875 0.319047 -0.038265
v 0.787894 0.319047 -0.038265
v 0.346178 -0.071703 0.352485
v 0.346178 0.526224 -0.245442
v 0.346178 0.215897 0.064885
v 0.637564 -0.071703 0.352485
v 0.637564 -0.282030 0.562812
v 0.637564 0.215897 0.064885
v 0.201908 0.215897 0.064885
v 0.346178 -0.175730 0.456512
v 0.346178 0.422197 -0.141415
v 0.201909 -0.071703 0.352485
v 0.346178 0.023233 0.257549
v -0.787070 0.023233 0.257549
v -0.074920 0.023233 0.257549
v -0.787070 0.422197 -0.141415
v -0.496051 0.023233 0.257549
v -0.496051 0.422197 -0.141415
v -0.496051 -0.175730 0.456512
v -0.201084 0.023233 0.257549
v -0.074920 0.215897 0.064885
v -0.787070 0.215897 0.064885
v -0.636739 0.023233 0.257549
v -0.074920 -0.071703 0.352485
v -0.201084 0.422197 -0.141415
v -0.636739 0.422197 -0.141415
v -0.496051 0.215897 0.064885
v -0.496051 0.526224 -0.245442
v -0.636739 -0.175730 0.456512
v -0.496051 -0.282030 0.562812
v -0.496051 -0.071703 0.352485
v -0.345354 0.115545 0.165237
v -0.201084 0.115545 0.165237
v -0.636739 0.115545 0.165237
v -0.787070 0.115545 0.165237
v -0.496051 0.115545 0.165237
v -0.074920 0.115545 0.165237
v -0.345353 0.319047 -0.038265
v -0.201084 0.319047 -0.038265
v -0.636739 0.319047 -0.038265
v -0.496051 0.319047 -0.038265
v -0.074920 0.319047 -0.038265
v -0.787070 0.319047 -0.038265
v -0.345354 -0.071703 0.352485
v -0.345353 0.526224 -0.245442
v -0.345354 0.215897 0.064885
v -0.636739 -0.071703 0.352485
v -0.636739 -0.282030 0.562812
v -0.636739 0.215897 0.064885
v -0.201084 0.215897 0.064885
v -0.345354 -0.175730 0.456512
v -0.345353 0.422197 -0.141415
v -0.201084 -0.071703 0.352485
v -0.345354 0.023233 0.257549
v 0.069031 0.023233 0.257549
v 0.069031 0.115545 0.165237
v 0.069031 0.319047 -0.038265
v 0.069031 0.215897 0.064885
v 0.069031 -0.071703 0.352485
v 0.787894 -0.257549 -0.023233
v 0.787894 0.141415 -0.422197
v 0.496876 -0.257549 -0.023233
v 0.496875 0.141415 -0.422197
v 0.496876 -0.456512 0.175730
v 0.201908 -0.257549 -0.023233
v 0.787894 -0.064885 -0.215897
v 0.637564 -0.257549 -0.023233
v 0.201908 0.141415 -0.422197
v 0.637564 0.141415 -0.422197
v 0.496875 -0.064885 -0.215897
v 0.496875 0.245443 -0.526224
v 0.637564 -0.456512 0.175730
v 0.496876 -0.562812 0.282030
v 0.496876 -0.352485 0.071703
v 0.346178 -0.165237 -0.115545
v 0.201908 -0.165237 -0.115545
v 0.637564 -0.165236 -0.115545
v 0.787894 -0.165236 -0.115545
v 0.496876 -0.165236 -0.115545
v 0.346178 0.038265 -0.319047
v 0.201908 0.038265 -0.319047
v 0.637564 0.038265 -0.319047
v 0.496875 0.038265 -0.319047
v 0.787894 0.038265 -0.319047
v 0.346178 -0.352485 0.071703
v 0.346178 0.245443 -0.526224
v 0.346178 -0.064885 -0.215897
v 0.637564 -0.352485 0.071703
v 0.637564 -0.562812 0.282030
v 0.637564 -0.064885 -0.215897
v 0.201908 -0.064885 -0.215897
v 0.346178 -0.456512 0.175730
v 0.346178 0.141415 -0.422197
v 0.201909 -0.352485 0.071703
v 0.346178 -0.257549 -0.023233
v -0.787070 -0.257549 -0.023233
v -0.074920 -0.257549 -0.023233
v -0.787070 0.141415 -0.422197
v -0.496051 -0.257549 -0.023233
v -0.496051 0.141415 -0.422197
v -0.496051 -0.456512 0.175730
v -0.201084 -0.257549 -0.023233
v -0.074920 -0.064885 -0.215897
v -0.787070 -0.064885 -0.215897
v -0.636739 -0.257549 -0.023233
v -0.074920 -0.352485 0.071703
v -0.201084 0.141415 -0.422197
v -0.636739 0.141415 -0.422197
v -0.496051 -0.064885 -0.215897
v -0.496051 0.245443 -0.526224
v -0.636739 -0.456512 0.175730
v -0.496051 -0.562812 0.282030
v -0.496051 -0.352485 0.071703
v -0.345354 -0.165237 -0.115545
v -0.201084 -0.165237 -0.115545
v -0.636739 -0.165236 -0.115545
v -0.787070 -0.165236 -0.115545
v -0.496051 -0.165236 -0.115545
v -0.074920 -0.165237 -0.115545
v -0.345353 0.038265 -0.319047
v -0.201084 0.038265 -0.319047
v -0.636739 0.038265 -0.319047
v -0.496051 0.038265 -0.319047
v -0.074920 0.038265 -0.319047
v -0.787070 0.038265 -0.319047
v -0.345354 -0.352485 0.071703
v -0.345353 0.245443 -0.526224
v -0.345354 -0.064885 -0.215897
v -0.636739 -0.352485 0.071703
v -0.636739 -0.562812 0.282030
v -0.636739 -0.064885 -0.215897
v -0.201084 -0.064885 -0.215897
v -0.345354 -0.456512 0.175730
v -0.345353 0.141415 -0.422197
v -0.201084 -0.352485 0.071703
v -0.345354 -0.257549 -0.023233
v 0.069031 -0.257549 -0.023233
v 0.069031 -0.165237 -0.115545
v 0.069031 0.038265 -0.319047
v 0.069031 -0.064885 -0.215897
v 0.069031 -0.352485 0.071703
vn 0.0000 0.7071 0.7071
vn 0.0000 -0.7071 -0.7071
vn 1.0000 0.0000 0.0000
vn 0.0000 0.7071 -0.7071
vn 0.0000 -0.7071 0.7071
vn -1.0000 -0.0000 0.0000
usemtl base.001
s off
f 82//1 78//1 38//1 47//1
f 30//1 13//1 5//1 14//1
f 29//1 8//1 3//1 15//1
f 8//1 18//1 20//1 3//1
f 1//1 19//1 18//1 8//1
f 78//1 79//1 60//1 38//1
f 36//1 16//1 17//1 6//1
f 18//1 31//1 11//1 20//1
f 19//1 7//1 31//1 18//1
f 25//1 2//1 10//1 23//1
f 79//1 81//1 44//1 60//1
f 21//1 34//1 9//1 22//1
f 3//1 20//1 16//1 36//1
f 81//1 80//1 65//1 44//1
f 7//1 25//1 23//1 31//1
f 28//1 21//1 22//1 32//1
f 11//1 24//1 21//1 28//1
f 26//1 36//1 6//1 35//1
f 20//1 11//1 28//1 16//1
f 4//1 12//1 27//1 34//1
f 5//1 15//1 26//1 33//1
f 15//1 3//1 36//1 26//1
f 76//1 47//1 38//1 43//1
f 71//1 53//1 42//1 52//1
f 70//1 54//1 40//1 46//1
f 46//1 40//1 59//1 57//1
f 37//1 46//1 57//1 58//1
f 43//1 38//1 60//1 56//1
f 77//1 43//1 56//1 55//1
f 57//1 59//1 50//1 72//1
f 58//1 57//1 72//1 45//1
f 66//1 63//1 49//1 39//1
f 56//1 60//1 44//1 73//1
f 61//1 62//1 48//1 75//1
f 40//1 77//1 55//1 59//1
f 73//1 44//1 65//1 62//1
f 45//1 72//1 63//1 66//1
f 69//1 73//1 62//1 61//1
f 50//1 69//1 61//1 64//1
f 67//1 76//1 43//1 77//1
f 59//1 55//1 69//1 50//1
f 41//1 75//1 68//1 51//1
f 42//1 74//1 67//1 54//1
f 54//1 67//1 77//1 40//1
f 32//1 22//1 80//1 81//1
f 17//1 32//1 81//1 79//1
f 6//1 17//1 79//1 78//1
f 35//1 6//1 78//1 82//1
f 164//2 129//2 120//2 160//2
f 112//2 96//2 87//2 95//2
f 111//2 97//2 85//2 90//2
f 90//2 85//2 102//2 100//2
f 83//2 90//2 100//2 101//2
f 160//2 120//2 142//2 161//2
f 118//2 88//2 99//2 98//2
f 100//2 102//2 93//2 113//2
f 101//2 100//2 113//2 89//2
f 107//2 105//2 92//2 84//2
f 161//2 142//2 126//2 163//2
f 103//2 104//2 91//2 116//2
f 85//2 118//2 98//2 102//2
f 163//2 126//2 147//2 162//2
f 89//2 113//2 105//2 107//2
f 110//2 114//2 104//2 103//2
f 93//2 110//2 103//2 106//2
f 108//2 117//2 88//2 118//2
f 102//2 98//2 110//2 93//2
f 86//2 116//2 109//2 94//2
f 87//2 115//2 108//2 97//2
f 97//2 108//2 118//2 85//2
f 158//2 125//2 120//2 129//2
f 153//2 134//2 124//2 135//2
f 152//2 128//2 122//2 136//2
f 128//2 139//2 141//2 122//2
f 119//2 140//2 139//2 128//2
f 125//2 138//2 142//2 120//2
f 159//2 137//2 138//2 125//2
f 139//2 154//2 132//2 141//2
f 140//2 127//2 154//2 139//2
f 148//2 121//2 131//2 145//2
f 138//2 155//2 126//2 142//2
f 143//2 157//2 130//2 144//2
f 122//2 141//2 137//2 159//2
f 155//2 144//2 147//2 126//2
f 127//2 148//2 145//2 154//2
f 151//2 143//2 144//2 155//2
f 132//2 146//2 143//2 151//2
f 149//2 159//2 125//2 158//2
f 141//2 132//2 151//2 137//2
f 123//2 133//2 150//2 157//2
f 124//2 136//2 149//2 156//2
f 136//2 122//2 159//2 149//2
f 138//2 137//2 151//2 155//2
f 99//2 114//2 110//2 98//2
f 114//2 163//2 162//2 104//2
f 99//2 161//2 163//2 114//2
f 88//2 160//2 161//2 99//2
f 117//2 164//2 160//2 88//2
f 2//3 25//3 107//3 84//3
f 12//3 4//3 86//3 94//3
f 5//4 13//4 95//4 87//4
f 15//3 5//3 87//3 97//3
f 7//3 19//3 101//3 89//3
f 1//5 8//5 90//5 83//5
f 9//4 34//4 116//4 91//4
f 10//4 2//4 84//4 92//4
f 24//3 11//3 93//3 106//3
f 14//6 5//6 87//6 96//6
f 19//3 1//3 83//3 101//3
f 65//4 80//4 162//4 147//4
f 21//4 24//4 106//4 103//4
f 34//3 21//3 103//3 116//3
f 22//6 9//6 91//6 104//6
f 23//6 10//6 92//6 105//6
f 29//5 15//5 97//5 111//5
f 8//3 29//3 111//3 90//3
f 30//5 14//5 96//5 112//5
f 13//3 30//3 112//3 95//3
f 11//4 31//4 113//4 93//4
f 31//6 23//6 105//6 113//6
f 25//3 7//3 89//3 107//3
f 82//5 47//5 129//5 164//5
f 26//5 35//5 117//5 108//5
f 34//6 27//6 109//6 116//6
f 33//6 26//6 108//6 115//6
f 27//4 12//4 94//4 109//4
f 5//5 33//5 115//5 87//5
f 4//5 34//5 116//5 86//5
f 66//6 39//6 121//6 148//6
f 41//6 51//6 133//6 123//6
f 52//4 42//4 124//4 134//4
f 42//6 54//6 136//6 124//6
f 58//6 45//6 127//6 140//6
f 46//5 37//5 119//5 128//5
f 75//4 48//4 130//4 157//4
f 39//4 49//4 131//4 121//4
f 50//6 64//6 146//6 132//6
f 42//3 53//3 135//3 124//3
f 37//6 58//6 140//6 119//6
f 62//4 65//4 147//4 144//4
f 64//4 61//4 143//4 146//4
f 61//6 75//6 157//6 143//6
f 48//3 62//3 144//3 130//3
f 49//3 63//3 145//3 131//3
f 54//5 70//5 152//5 136//5
f 70//6 46//6 128//6 152//6
f 53//5 71//5 153//5 135//5
f 71//6 52//6 134//6 153//6
f 72//4 50//4 132//4 154//4
f 63//3 72//3 154//3 145//3
f 45//6 66//6 148//6 127//6
f 47//5 76//5 158//5 129//5
f 76//5 67//5 149//5 158//5
f 68//3 75//3 157//3 150//3
f 67//3 74//3 156//3 149//3
f 51//4 68//4 150//4 133//4
f 74//5 42//5 124//5 156//5
f 75//5 41//5 123//5 157//5
f 80//4 22//4 104//4 162//4
f 35//5 82//5 164//5 117//5
usemtl eyes.001
f 56//1 73//1 69//1 55//1
f 17//1 16//1 28//1 32//1
