# Blender v2.79 (sub 0) OBJ File: 'font_official7_modApplied.blend'
# www.blender.org
mtllib 0.mtl
o 0_CUABC.027
v 0.166667 0.000000 -0.777778
v -0.166667 0.000000 -0.777778
v -0.055556 0.000000 -0.222222
v -0.166667 0.000000 -0.333333
v -0.166667 0.000000 -0.666667
v -0.277778 0.000000 -0.666667
v -0.277778 0.000000 -0.111111
v -0.166667 0.000000 -0.111111
v -0.166667 0.000000 -0.222222
v 0.166667 0.000000 -0.666667
v 0.166667 0.000000 -0.555556
v 0.055555 0.000000 -0.555556
v 0.055555 0.000000 -0.444444
v 0.166667 0.000000 -0.444444
v 0.277778 0.000000 -0.111111
v 0.277778 0.000000 -0.666667
v -0.055556 0.000000 -0.333333
v 0.055555 0.000000 -0.333333
v -0.055556 0.000000 -0.444444
v 0.166667 0.000000 -0.111111
v -0.166667 0.000000 0.000000
v 0.166667 0.000000 0.000000
v 0.166667 -0.250000 -0.777778
v -0.166667 -0.250000 -0.777778
v -0.055556 -0.250000 -0.222222
v -0.166667 -0.250000 -0.333333
v -0.166667 -0.250000 -0.666667
v -0.277778 -0.250000 -0.666667
v -0.277778 -0.250000 -0.111111
v -0.166667 -0.250000 -0.111111
v -0.166667 -0.250000 -0.222222
v 0.166667 -0.250000 -0.666667
v 0.166667 -0.250000 -0.555556
v 0.055555 -0.250000 -0.555556
v 0.055555 -0.250000 -0.444444
v 0.166667 -0.250000 -0.444444
v 0.277778 -0.250000 -0.111111
v 0.277778 -0.250000 -0.666667
v -0.055556 -0.250000 -0.333333
v 0.055555 -0.250000 -0.333333
v -0.055556 -0.250000 -0.444444
v 0.166667 -0.250000 -0.111111
v -0.166667 -0.250000 0.000000
v 0.166667 -0.250000 0.000000
vn 0.0000 1.0000 0.0000
vn 0.0000 -1.0000 0.0000
vn 1.0000 0.0000 0.0000
vn -1.0000 0.0000 0.0000
vn 0.0000 0.0000 -1.0000
vn 0.0000 0.0000 1.0000
usemtl Material.027
s off
f 17//1 18//1 13//1 19//1
f 7//1 8//1 9//1 4//1 5//1 6//1
f 9//1 3//1 17//1 4//1
f 21//1 22//1 20//1 8//1
f 16//1 10//1 11//1 14//1 20//1 15//1
f 5//1 10//1 1//1 2//1
f 13//1 14//1 11//1 12//1
f 39//2 41//2 35//2 40//2
f 29//2 28//2 27//2 26//2 31//2 30//2
f 31//2 26//2 39//2 25//2
f 43//2 30//2 42//2 44//2
f 38//2 37//2 42//2 36//2 33//2 32//2
f 27//2 24//2 23//2 32//2
f 35//2 34//2 33//2 36//2
f 20//3 22//3 44//3 42//3
f 7//4 6//4 28//4 29//4
f 6//5 5//5 27//5 28//5
f 10//5 16//5 38//5 32//5
f 5//3 4//3 26//3 27//3
f 8//6 7//6 29//6 30//6
f 11//4 10//4 32//4 33//4
f 16//3 15//3 37//3 38//3
f 2//5 1//5 23//5 24//5
f 12//5 11//5 33//5 34//5
f 14//6 13//6 35//6 36//6
f 3//6 9//6 31//6 25//6
f 13//4 12//4 34//4 35//4
f 22//6 21//6 43//6 44//6
f 18//6 17//6 39//6 40//6
f 17//4 19//4 41//4 39//4
f 9//3 8//3 30//3 31//3
f 13//3 18//3 40//3 35//3
f 4//5 17//5 39//5 26//5
f 19//5 13//5 35//5 41//5
f 21//4 8//4 30//4 43//4
f 8//5 20//5 42//5 30//5
f 20//4 14//4 36//4 42//4
f 10//6 5//6 27//6 32//6
f 5//4 2//4 24//4 27//4
f 15//6 20//6 42//6 37//6
f 1//3 10//3 32//3 23//3
f 17//3 3//3 25//3 39//3
