# Blender v2.79 (sub 0) OBJ File: 'font_official7_modApplied.blend'
# www.blender.org
mtllib 1.mtl
o 1_CUABC.028
v 0.055555 0.000000 -0.111111
v 0.055555 0.000000 -0.777778
v -0.055556 0.000000 -0.777778
v -0.055556 0.000000 -0.666667
v -0.166667 0.000000 -0.666667
v -0.166667 0.000000 -0.555556
v -0.055556 0.000000 -0.555556
v -0.055556 0.000000 -0.111111
v -0.166667 0.000000 -0.111111
v -0.166667 0.000000 0.000000
v 0.166667 0.000000 0.000000
v 0.166667 0.000000 -0.111111
v 0.055555 -0.250000 -0.111111
v 0.055555 -0.250000 -0.777778
v -0.055556 -0.250000 -0.777778
v -0.055556 -0.250000 -0.666667
v -0.166667 -0.250000 -0.666667
v -0.166667 -0.250000 -0.555556
v -0.055556 -0.250000 -0.555556
v -0.055556 -0.250000 -0.111111
v -0.166667 -0.250000 -0.111111
v -0.166667 -0.250000 0.000000
v 0.166667 -0.250000 0.000000
v 0.166667 -0.250000 -0.111111
vn 0.0000 1.0000 0.0000
vn 0.0000 -1.0000 0.0000
vn 0.0000 0.0000 -1.0000
vn -1.0000 0.0000 0.0000
vn 1.0000 0.0000 0.0000
vn 0.0000 0.0000 1.0000
usemtl Material.028
s off
f 2//1 3//1 4//1 7//1 8//1 1//1
f 12//1 1//1 8//1 9//1 10//1 11//1
f 6//1 7//1 4//1 5//1
f 14//2 13//2 20//2 19//2 16//2 15//2
f 24//2 23//2 22//2 21//2 20//2 13//2
f 18//2 17//2 16//2 19//2
f 3//3 2//3 14//3 15//3
f 8//4 7//4 19//4 20//4
f 2//5 1//5 13//5 14//5
f 4//4 3//4 15//4 16//4
f 5//3 4//3 16//3 17//3
f 1//3 12//3 24//3 13//3
f 6//4 5//4 17//4 18//4
f 11//6 10//6 22//6 23//6
f 10//4 9//4 21//4 22//4
f 9//3 8//3 20//3 21//3
f 12//5 11//5 23//5 24//5
f 7//6 6//6 18//6 19//6
