# Blender v2.79 (sub 0) OBJ File: 'font_official7_modApplied.blend'
# www.blender.org
mtllib 8.mtl
o 8_CUABC.035
v 0.166667 0.000000 -0.666667
v 0.277778 0.000000 -0.444444
v 0.277778 0.000000 -0.666667
v 0.166667 0.000000 -0.444444
v 0.166667 0.000000 -0.333333
v -0.166667 0.000000 -0.333333
v -0.277778 0.000000 -0.333333
v -0.277778 0.000000 -0.111111
v 0.277778 0.000000 -0.111111
v 0.277778 0.000000 -0.333333
v 0.166667 0.000000 -0.111111
v -0.166667 0.000000 -0.111111
v -0.166667 0.000000 0.000000
v 0.166667 0.000000 0.000000
v 0.166667 0.000000 -0.777778
v -0.166667 0.000000 -0.777778
v -0.166667 0.000000 -0.666667
v -0.277778 0.000000 -0.666667
v -0.277778 0.000000 -0.444444
v -0.166667 0.000000 -0.444444
v 0.166667 -0.250000 -0.666667
v 0.277778 -0.250000 -0.444444
v 0.277778 -0.250000 -0.666667
v 0.166667 -0.250000 -0.444444
v 0.166667 -0.250000 -0.333333
v -0.166667 -0.250000 -0.333333
v -0.277778 -0.250000 -0.333333
v -0.277778 -0.250000 -0.111111
v 0.277778 -0.250000 -0.111111
v 0.277778 -0.250000 -0.333333
v 0.166667 -0.250000 -0.111111
v -0.166667 -0.250000 -0.111111
v -0.166667 -0.250000 0.000000
v 0.166667 -0.250000 0.000000
v 0.166667 -0.250000 -0.777778
v -0.166667 -0.250000 -0.777778
v -0.166667 -0.250000 -0.666667
v -0.277778 -0.250000 -0.666667
v -0.277778 -0.250000 -0.444444
v -0.166667 -0.250000 -0.444444
vn 0.0000 1.0000 0.0000
vn 0.0000 -1.0000 0.0000
vn 1.0000 0.0000 0.0000
vn 0.0000 0.0000 1.0000
vn -1.0000 0.0000 0.0000
vn 0.0000 0.0000 -1.0000
usemtl Material.035
s off
f 6//1 5//1 4//1 20//1
f 19//1 20//1 17//1 18//1
f 4//1 2//1 3//1 1//1
f 17//1 1//1 15//1 16//1
f 8//1 12//1 6//1 7//1
f 11//1 9//1 10//1 5//1
f 13//1 14//1 11//1 12//1
f 26//2 40//2 24//2 25//2
f 39//2 38//2 37//2 40//2
f 24//2 21//2 23//2 22//2
f 37//2 36//2 35//2 21//2
f 28//2 27//2 26//2 32//2
f 31//2 25//2 30//2 29//2
f 33//2 32//2 31//2 34//2
f 3//3 2//3 22//3 23//3
f 4//3 5//3 25//3 24//3
f 14//4 13//4 33//4 34//4
f 13//5 12//5 32//5 33//5
f 16//6 15//6 35//6 36//6
f 1//6 3//6 23//6 21//6
f 11//3 14//3 34//3 31//3
f 17//5 16//5 36//5 37//5
f 12//6 11//6 31//6 32//6
f 8//5 7//5 27//5 28//5
f 7//6 6//6 26//6 27//6
f 20//4 19//4 39//4 40//4
f 10//3 9//3 29//3 30//3
f 19//5 18//5 38//5 39//5
f 15//3 1//3 21//3 35//3
f 2//4 4//4 24//4 22//4
f 20//6 4//6 24//6 40//6
f 5//4 6//4 26//4 25//4
f 1//4 17//4 37//4 21//4
f 6//5 20//5 40//5 26//5
f 4//5 1//5 21//5 24//5
f 11//5 5//5 25//5 31//5
f 17//3 20//3 40//3 37//3
f 9//4 11//4 31//4 29//4
f 12//4 8//4 28//4 32//4
f 18//6 17//6 37//6 38//6
f 5//6 10//6 30//6 25//6
f 6//3 12//3 32//3 26//3
