# Blender v2.79 (sub 0) OBJ File: 'font_official7_modApplied.blend'
# www.blender.org
mtllib Double_Dot.mtl
o Double_Dot_CUABC.044
v -0.110556 -0.000000 -0.333335
v -0.110556 -0.000000 -0.111113
v 0.110555 -0.000000 -0.111113
v 0.110555 -0.000000 -0.333335
v 0.110555 -0.000000 -0.666668
v -0.110556 -0.000000 -0.666668
v -0.110556 -0.000000 -0.444446
v 0.110555 -0.000000 -0.444446
v -0.110556 -0.250000 -0.333335
v -0.110556 -0.250000 -0.111113
v 0.110555 -0.250000 -0.111113
v 0.110555 -0.250000 -0.333335
v 0.110555 -0.250000 -0.666668
v -0.110556 -0.250000 -0.666668
v -0.110556 -0.250000 -0.444446
v 0.110555 -0.250000 -0.444446
vn 0.0000 1.0000 0.0000
vn 0.0000 -1.0000 0.0000
vn -1.0000 0.0000 0.0000
vn 0.0000 0.0000 -1.0000
vn 0.0000 0.0000 1.0000
vn 1.0000 0.0000 0.0000
usemtl Material.043
s off
f 2//1 3//1 4//1 1//1
f 7//1 8//1 5//1 6//1
f 10//2 9//2 12//2 11//2
f 15//2 14//2 13//2 16//2
f 2//3 1//3 9//3 10//3
f 1//4 4//4 12//4 9//4
f 8//5 7//5 15//5 16//5
f 3//5 2//5 10//5 11//5
f 6//4 5//4 13//4 14//4
f 5//6 8//6 16//6 13//6
f 4//6 3//6 11//6 12//6
f 7//3 6//3 14//3 15//3
