# Blender v2.79 (sub 0) OBJ File: 'font_official7_modApplied.blend'
# www.blender.org
mtllib J.mtl
o J_CUABC.010
v 0.166111 0.000000 -0.777778
v 0.276111 0.000000 -0.113333
v 0.276111 0.000000 -0.777778
v -0.277222 0.000000 -0.224444
v -0.277222 0.000000 -0.113333
v -0.166111 0.000000 -0.113333
v -0.166111 0.000000 -0.224444
v 0.166111 0.000000 -0.113333
v -0.166111 0.000000 0.000000
v 0.166111 0.000000 0.000000
v 0.166111 -0.250000 -0.777778
v 0.276111 -0.250000 -0.113333
v 0.276111 -0.250000 -0.777778
v -0.277222 -0.250000 -0.224444
v -0.277222 -0.250000 -0.113333
v -0.166111 -0.250000 -0.113333
v -0.166111 -0.250000 -0.224444
v 0.166111 -0.250000 -0.113333
v -0.166111 -0.250000 0.000000
v 0.166111 -0.250000 0.000000
vn 0.0000 1.0000 0.0000
vn 0.0000 -1.0000 0.0000
vn 0.0000 0.0000 -1.0000
vn 0.0000 0.0000 1.0000
vn 1.0000 0.0000 0.0000
vn -1.0000 0.0000 0.0000
usemtl Material.010
s off
f 5//1 6//1 7//1 4//1
f 8//1 2//1 3//1 1//1
f 9//1 10//1 8//1 6//1
f 15//2 14//2 17//2 16//2
f 18//2 11//2 13//2 12//2
f 19//2 16//2 18//2 20//2
f 1//3 3//3 13//3 11//3
f 4//3 7//3 17//3 14//3
f 10//4 9//4 19//4 20//4
f 6//4 5//4 15//4 16//4
f 8//5 10//5 20//5 18//5
f 7//5 6//5 16//5 17//5
f 5//6 4//6 14//6 15//6
f 3//5 2//5 12//5 13//5
f 2//4 8//4 18//4 12//4
f 8//6 1//6 11//6 18//6
f 9//6 6//6 16//6 19//6
f 6//3 8//3 18//3 16//3
