# Blender v2.79 (sub 0) OBJ File: 'font_official7_modApplied.blend'
# www.blender.org
mtllib K.mtl
o K_CUABC.011
v -0.166667 0.000000 -0.444445
v -0.166667 0.000000 -0.777778
v -0.277778 0.000000 -0.777778
v -0.277778 0.000000 0.000000
v -0.166667 0.000000 0.000000
v -0.166667 0.000000 -0.333333
v -0.055556 0.000000 -0.333333
v -0.055556 0.000000 -0.444445
v 0.277778 0.000000 -0.777778
v 0.166667 0.000000 -0.777778
v 0.277778 0.000000 -0.666667
v 0.166667 0.000000 -0.666667
v 0.055556 0.000000 -0.666667
v 0.166667 0.000000 -0.555555
v 0.055556 0.000000 -0.555555
v -0.055556 0.000000 -0.555555
v 0.055556 0.000000 -0.444445
v 0.055556 0.000000 -0.222222
v 0.055556 0.000000 -0.333333
v -0.055556 0.000000 -0.222222
v 0.166667 0.000000 -0.222222
v 0.055556 0.000000 -0.111111
v 0.277778 0.000000 0.000000
v 0.277778 0.000000 -0.111111
v 0.166667 0.000000 -0.111111
v 0.166667 0.000000 0.000000
v -0.166667 -0.250000 -0.444445
v -0.166667 -0.250000 -0.777778
v -0.277778 -0.250000 -0.777778
v -0.277778 -0.250000 0.000000
v -0.166667 -0.250000 0.000000
v -0.166667 -0.250000 -0.333333
v -0.055556 -0.250000 -0.333333
v -0.055556 -0.250000 -0.444445
v 0.277778 -0.250000 -0.777778
v 0.166667 -0.250000 -0.777778
v 0.277778 -0.250000 -0.666667
v 0.166667 -0.250000 -0.666667
v 0.055556 -0.250000 -0.666667
v 0.166667 -0.250000 -0.555555
v 0.055556 -0.250000 -0.555555
v -0.055556 -0.250000 -0.555555
v 0.055556 -0.250000 -0.444445
v 0.055556 -0.250000 -0.222222
v 0.055556 -0.250000 -0.333333
v -0.055556 -0.250000 -0.222222
v 0.166667 -0.250000 -0.222222
v 0.055556 -0.250000 -0.111111
v 0.277778 -0.250000 0.000000
v 0.277778 -0.250000 -0.111111
v 0.166667 -0.250000 -0.111111
v 0.166667 -0.250000 0.000000
vn 0.0000 1.0000 0.0000
vn 0.0000 -1.0000 0.0000
vn 0.0000 0.0000 -1.0000
vn 0.0000 0.0000 1.0000
vn 1.0000 0.0000 0.0000
vn -1.0000 0.0000 0.0000
usemtl Material.011
s off
f 5//1 6//1 1//1 2//1 3//1 4//1
f 20//1 18//1 19//1 7//1
f 12//1 11//1 9//1 10//1
f 15//1 14//1 12//1 13//1
f 26//1 23//1 24//1 25//1
f 6//1 7//1 8//1 1//1
f 8//1 17//1 15//1 16//1
f 22//1 25//1 21//1 18//1
f 31//2 30//2 29//2 28//2 27//2 32//2
f 46//2 33//2 45//2 44//2
f 38//2 36//2 35//2 37//2
f 41//2 39//2 38//2 40//2
f 52//2 51//2 50//2 49//2
f 32//2 27//2 34//2 33//2
f 34//2 42//2 41//2 43//2
f 48//2 44//2 47//2 51//2
f 13//3 12//3 38//3 39//3
f 7//4 6//4 32//4 33//4
f 25//3 24//3 50//3 51//3
f 8//5 7//5 33//5 34//5
f 15//5 17//5 43//5 41//5
f 10//3 9//3 35//3 36//3
f 26//6 25//6 51//6 52//6
f 12//5 14//5 40//5 38//5
f 1//3 8//3 34//3 27//3
f 24//5 23//5 49//5 50//5
f 19//5 18//5 44//5 45//5
f 6//5 5//5 31//5 32//5
f 9//5 11//5 37//5 35//5
f 5//4 4//4 30//4 31//4
f 2//5 1//5 27//5 28//5
f 16//3 15//3 41//3 42//3
f 3//3 2//3 28//3 29//3
f 23//4 26//4 52//4 49//4
f 18//4 20//4 46//4 44//4
f 4//6 3//6 29//6 30//6
f 7//3 19//3 45//3 33//3
f 20//6 7//6 33//6 46//6
f 21//5 25//5 51//5 47//5
f 12//6 10//6 36//6 38//6
f 18//3 21//3 47//3 44//3
f 11//4 12//4 38//4 37//4
f 22//6 18//6 44//6 48//6
f 15//6 13//6 39//6 41//6
f 25//4 22//4 48//4 51//4
f 14//4 15//4 41//4 40//4
f 8//6 16//6 42//6 34//6
f 17//4 8//4 34//4 43//4
