# Blender v2.79 (sub 0) OBJ File: 'font_official7_modApplied.blend'
# www.blender.org
mtllib Q.mtl
o Q_CUABC.017
v 0.083334 0.000000 -0.777778
v -0.250000 0.000000 -0.777778
v -0.250000 0.000000 -0.111111
v -0.250000 0.000000 -0.666667
v -0.361111 0.000000 -0.666667
v -0.361111 0.000000 -0.111111
v 0.083334 0.000000 -0.666667
v 0.194445 0.000000 -0.222222
v 0.194445 0.000000 -0.666667
v -0.138889 0.000000 -0.333333
v -0.138889 0.000000 -0.222222
v -0.027777 0.000000 -0.333333
v -0.027777 0.000000 -0.111111
v 0.083334 0.000000 -0.222222
v -0.027777 0.000000 -0.222222
v -0.250000 0.000000 0.000000
v -0.027777 0.000000 0.000000
v 0.194445 0.000000 0.000000
v 0.194445 0.000000 -0.111111
v 0.083334 0.000000 -0.111111
v 0.083334 0.000000 0.000000
v 0.083334 -0.250000 -0.777778
v -0.250000 -0.250000 -0.777778
v -0.250000 -0.250000 -0.111111
v -0.250000 -0.250000 -0.666667
v -0.361111 -0.250000 -0.666667
v -0.361111 -0.250000 -0.111111
v 0.083334 -0.250000 -0.666667
v 0.194445 -0.250000 -0.222222
v 0.194445 -0.250000 -0.666667
v -0.138889 -0.250000 -0.333333
v -0.138889 -0.250000 -0.222222
v -0.027777 -0.250000 -0.333333
v -0.027777 -0.250000 -0.111111
v 0.083334 -0.250000 -0.222222
v -0.027777 -0.250000 -0.222222
v -0.250000 -0.250000 0.000000
v -0.027777 -0.250000 0.000000
v 0.194445 -0.250000 0.000000
v 0.194445 -0.250000 -0.111111
v 0.083334 -0.250000 -0.111111
v 0.083334 -0.250000 0.000000
vn 0.0000 1.0000 0.0000
vn 0.0000 -1.0000 0.0000
vn -1.0000 0.0000 0.0000
vn 0.0000 0.0000 -1.0000
vn 1.0000 0.0000 0.0000
vn 0.0000 0.0000 1.0000
usemtl Material.017
s off
f 14//1 8//1 9//1 7//1
f 4//1 7//1 1//1 2//1
f 16//1 17//1 13//1 3//1
f 21//1 18//1 19//1 20//1
f 11//1 15//1 12//1 10//1
f 6//1 3//1 4//1 5//1
f 13//1 20//1 14//1 15//1
f 35//2 28//2 30//2 29//2
f 25//2 23//2 22//2 28//2
f 37//2 24//2 34//2 38//2
f 42//2 41//2 40//2 39//2
f 32//2 31//2 33//2 36//2
f 27//2 26//2 25//2 24//2
f 34//2 36//2 35//2 41//2
f 11//3 10//3 31//3 32//3
f 13//3 15//3 36//3 34//3
f 2//4 1//4 22//4 23//4
f 10//4 12//4 33//4 31//4
f 7//4 9//4 30//4 28//4
f 15//4 14//4 35//4 36//4
f 6//3 5//3 26//3 27//3
f 19//5 18//5 39//5 40//5
f 4//5 3//5 24//5 25//5
f 20//4 19//4 40//4 41//4
f 5//4 4//4 25//4 26//4
f 18//6 21//6 42//6 39//6
f 3//6 6//6 27//6 24//6
f 9//5 8//5 29//5 30//5
f 21//3 20//3 41//3 42//3
f 17//6 16//6 37//6 38//6
f 12//5 15//5 36//5 33//5
f 20//6 13//6 34//6 41//6
f 14//5 20//5 41//5 35//5
f 15//6 11//6 32//6 36//6
f 14//3 7//3 28//3 35//3
f 8//6 14//6 35//6 29//6
f 13//5 17//5 38//5 34//5
f 16//3 3//3 24//3 37//3
f 7//6 4//6 25//6 28//6
f 1//5 7//5 28//5 22//5
f 3//4 13//4 34//4 24//4
f 4//3 2//3 23//3 25//3
