# Blender v2.79 (sub 0) OBJ File: 'font_official7_modApplied.blend'
# www.blender.org
mtllib Slash.mtl
o Slash_CUABC.047
v 0.272111 0.000000 -0.777778
v 0.383222 0.000000 -0.666667
v 0.383222 0.000000 -0.777778
v 0.272111 0.000000 -0.555556
v 0.272111 0.000000 -0.666667
v 0.161000 0.000000 -0.666667
v 0.049889 0.000000 -0.444444
v 0.161000 0.000000 -0.444444
v 0.161000 0.000000 -0.555556
v 0.049889 0.000000 -0.555556
v -0.061222 0.000000 -0.333333
v 0.049889 0.000000 -0.333333
v -0.061222 0.000000 -0.444444
v -0.061222 0.000000 -0.222222
v -0.172333 0.000000 -0.333333
v -0.283444 0.000000 -0.111111
v -0.172333 0.000000 -0.111111
v -0.172333 0.000000 -0.222222
v -0.283444 0.000000 -0.222222
v -0.394556 0.000000 0.000000
v -0.283444 0.000000 0.000000
v -0.394556 0.000000 -0.111111
v 0.272111 -0.250000 -0.777778
v 0.383222 -0.250000 -0.666667
v 0.383222 -0.250000 -0.777778
v 0.272111 -0.250000 -0.555556
v 0.272111 -0.250000 -0.666667
v 0.161000 -0.250000 -0.666667
v 0.049889 -0.250000 -0.444444
v 0.161000 -0.250000 -0.444444
v 0.161000 -0.250000 -0.555556
v 0.049889 -0.250000 -0.555556
v -0.061222 -0.250000 -0.333333
v 0.049889 -0.250000 -0.333333
v -0.061222 -0.250000 -0.444444
v -0.061222 -0.250000 -0.222222
v -0.172333 -0.250000 -0.333333
v -0.283444 -0.250000 -0.111111
v -0.172333 -0.250000 -0.111111
v -0.172333 -0.250000 -0.222222
v -0.283444 -0.250000 -0.222222
v -0.394556 -0.250000 0.000000
v -0.283444 -0.250000 0.000000
v -0.394556 -0.250000 -0.111111
vn 0.0000 1.0000 0.0000
vn 0.0000 -1.0000 0.0000
vn 0.0000 0.0000 1.0000
vn -1.0000 0.0000 0.0000
vn 0.0000 0.0000 -1.0000
vn 1.0000 0.0000 0.0000
usemtl Material.046
s off
f 20//1 21//1 16//1 22//1
f 5//1 2//1 3//1 1//1
f 18//1 14//1 11//1 15//1
f 7//1 8//1 9//1 10//1
f 9//1 4//1 5//1 6//1
f 11//1 12//1 7//1 13//1
f 16//1 17//1 18//1 19//1
f 42//2 44//2 38//2 43//2
f 27//2 23//2 25//2 24//2
f 40//2 37//2 33//2 36//2
f 29//2 32//2 31//2 30//2
f 31//2 28//2 27//2 26//2
f 33//2 35//2 29//2 34//2
f 38//2 41//2 40//2 39//2
f 17//3 16//3 38//3 39//3
f 7//4 10//4 32//4 29//4
f 8//3 7//3 29//3 30//3
f 21//3 20//3 42//3 43//3
f 11//4 13//4 35//4 33//4
f 10//5 9//5 31//5 32//5
f 20//4 22//4 44//4 42//4
f 12//3 11//3 33//3 34//3
f 9//6 8//6 30//6 31//6
f 19//5 18//5 40//5 41//5
f 6//5 5//5 27//5 28//5
f 1//5 3//5 25//5 23//5
f 18//6 17//6 39//6 40//6
f 5//6 4//6 26//6 27//6
f 16//4 19//4 41//4 38//4
f 3//6 2//6 24//6 25//6
f 4//3 9//3 31//3 26//3
f 11//6 14//6 36//6 33//6
f 2//3 5//3 27//3 24//3
f 13//5 7//5 29//5 35//5
f 7//6 12//6 34//6 29//6
f 16//6 21//6 43//6 38//6
f 18//4 15//4 37//4 40//4
f 22//5 16//5 38//5 44//5
f 14//3 18//3 40//3 36//3
f 5//4 1//4 23//4 27//4
f 15//5 11//5 33//5 37//5
f 9//4 6//4 28//4 31//4
