# Blender v2.79 (sub 0) OBJ File: 'font_official7_modApplied.blend'
# www.blender.org
mtllib Z.mtl
o Z_CUABC.026
v 0.277778 0.000000 -0.777778
v -0.277778 0.000000 -0.777778
v -0.277778 0.000000 -0.666667
v 0.166667 0.000000 -0.666667
v 0.166667 0.000000 -0.555555
v 0.277778 0.000000 -0.555555
v 0.055555 0.000000 -0.444445
v 0.166667 0.000000 -0.444445
v 0.055555 0.000000 -0.555555
v 0.055555 0.000000 -0.333333
v -0.055555 0.000000 -0.444445
v -0.055555 0.000000 -0.222222
v -0.055555 0.000000 -0.333333
v -0.166667 0.000000 -0.333333
v -0.277778 0.000000 -0.222222
v -0.277778 0.000000 0.000000
v 0.277778 0.000000 0.000000
v 0.277778 0.000000 -0.111111
v -0.166667 0.000000 -0.111111
v -0.166667 0.000000 -0.222222
v 0.277778 -0.250000 -0.777778
v -0.277778 -0.250000 -0.777778
v -0.277778 -0.250000 -0.666667
v 0.166667 -0.250000 -0.666667
v 0.166667 -0.250000 -0.555555
v 0.277778 -0.250000 -0.555555
v 0.055555 -0.250000 -0.444445
v 0.166667 -0.250000 -0.444445
v 0.055555 -0.250000 -0.555555
v 0.055555 -0.250000 -0.333333
v -0.055555 -0.250000 -0.444445
v -0.055555 -0.250000 -0.222222
v -0.055555 -0.250000 -0.333333
v -0.166667 -0.250000 -0.333333
v -0.277778 -0.250000 -0.222222
v -0.277778 -0.250000 0.000000
v 0.277778 -0.250000 0.000000
v 0.277778 -0.250000 -0.111111
v -0.166667 -0.250000 -0.111111
v -0.166667 -0.250000 -0.222222
vn 0.0000 1.0000 0.0000
vn 0.0000 -1.0000 0.0000
vn 0.0000 0.0000 -1.0000
vn 0.0000 0.0000 1.0000
vn 1.0000 0.0000 0.0000
vn -1.0000 0.0000 0.0000
usemtl Material.026
s off
f 20//1 12//1 13//1 14//1
f 7//1 8//1 5//1 9//1
f 20//1 15//1 16//1 19//1
f 18//1 19//1 16//1 17//1
f 2//1 3//1 4//1 1//1
f 6//1 1//1 4//1 5//1
f 13//1 10//1 7//1 11//1
f 40//2 34//2 33//2 32//2
f 27//2 29//2 25//2 28//2
f 40//2 39//2 36//2 35//2
f 38//2 37//2 36//2 39//2
f 22//2 21//2 24//2 23//2
f 26//2 25//2 24//2 21//2
f 33//2 31//2 27//2 30//2
f 15//3 20//3 40//3 35//3
f 2//3 1//3 21//3 22//3
f 17//4 16//4 36//4 37//4
f 18//5 17//5 37//5 38//5
f 7//6 9//6 29//6 27//6
f 3//6 2//6 22//6 23//6
f 19//3 18//3 38//3 39//3
f 1//5 6//5 26//5 21//5
f 16//6 15//6 35//6 36//6
f 5//6 4//6 24//6 25//6
f 4//4 3//4 23//4 24//4
f 14//3 13//3 33//3 34//3
f 20//5 19//5 39//5 40//5
f 8//4 7//4 27//4 28//4
f 6//4 5//4 25//4 26//4
f 13//5 12//5 32//5 33//5
f 12//4 20//4 40//4 32//4
f 5//5 8//5 28//5 25//5
f 13//6 11//6 31//6 33//6
f 7//5 10//5 30//5 27//5
f 20//6 14//6 34//6 40//6
f 11//3 7//3 27//3 31//3
f 10//4 13//4 33//4 30//4
f 9//3 5//3 25//3 29//3
